<?xml version="1.0" encoding="UTF-8"?>
<!-- Generator: Adobe Illustrator 16.0.0, SVG Export Plug-In . SVG Version: 6.00 Build 0)  -->
<svg xmlns="http://www.w3.org/2000/svg" xmlns:xlink="http://www.w3.org/1999/xlink" version="1.1" id="Layer_1" x="0px" y="0px" width="24.75px" height="32.559px" viewBox="0 0 24.75 32.559" xml:space="preserve">
<g>
	<circle fill="none" stroke="#BDA46D" stroke-width="2" stroke-miterlimit="10" cx="12.375" cy="20.184" r="11.375"></circle>
	
		<path fill="#FFFFFF" stroke="#BDA46D" stroke-width="2" stroke-linecap="round" stroke-linejoin="round" stroke-miterlimit="10" d="   M21.594,4.309c-2.385-6.231-8.927-1.75-8.927-1.75S6.461-1.892,4,4.309c-2.083,5.25,8.75,11.083,8.75,11.083   S23.667,9.726,21.594,4.309z"></path>
	<polyline fill="none" stroke="#BDA46D" stroke-linecap="round" stroke-linejoin="round" stroke-miterlimit="10" points="   18.75,1.059 17.125,5.434 17.75,6.809 21.75,6.309  "></polyline>
	<polyline fill="none" stroke="#BDA46D" stroke-linecap="round" stroke-linejoin="round" stroke-miterlimit="10" points="   6.125,1.184 9,4.934 7.75,6.809 3.875,6.684  "></polyline>
	<path fill="#FFFFFF" stroke="#BDA46D" stroke-linecap="round" stroke-linejoin="round" stroke-miterlimit="10" d="M17.62,6.232   c-1.308-3.004-4.87,0.452-4.87,0.452S9.321,3.243,7.972,6.232c-1.142,2.531,4.798,5.343,4.798,5.343S18.757,8.843,17.62,6.232z"></path>
	
		<line fill="none" stroke="#BDA46D" stroke-linecap="round" stroke-linejoin="round" stroke-miterlimit="10" x1="12.77" y1="11.575" x2="12.77" y2="15.393"></line>
	
		<line fill="none" stroke="#BDA46D" stroke-linecap="round" stroke-linejoin="round" stroke-miterlimit="10" x1="12.75" y1="6.684" x2="12.75" y2="2.559"></line>
</g>
</svg>
