<?xml version="1.0" encoding="UTF-8"?>
<!-- Generator: Adobe Illustrator 16.0.0, SVG Export Plug-In . SVG Version: 6.00 Build 0)  -->
<svg xmlns="http://www.w3.org/2000/svg" xmlns:xlink="http://www.w3.org/1999/xlink" version="1.1" id="Layer_1" x="0px" y="0px" width="45.385px" height="41.28px" viewBox="0 0 45.385 41.28" xml:space="preserve">
<g>
	<g>
		<path fill="#BDA46D" d="M27.899,0.082V0c-0.002,0.013-0.004,0.028-0.007,0.041C27.891,0.028,27.888,0.013,27.886,0v0.082    c-0.125,0.74-0.623,2.256-2.599,2.275c0.278-0.012,2.282,0.015,2.599,2.101V4.53c0.001-0.013,0.005-0.023,0.006-0.036    c0.002,0.013,0.005,0.023,0.007,0.036V4.458c0.317-2.086,2.321-2.113,2.6-2.101C28.522,2.338,28.025,0.822,27.899,0.082z"></path>
		<path fill="#BDA46D" d="M30.499,2.357c0.012,0,0.022,0.002,0.035,0.002C30.542,2.359,30.525,2.358,30.499,2.357z"></path>
		<path fill="#BDA46D" d="M25.287,2.357c-0.026,0.001-0.043,0.002-0.035,0.002C25.264,2.359,25.274,2.357,25.287,2.357z"></path>
	</g>
	<g>
		<path fill="#BDA46D" d="M2.649,27.582V27.5c-0.002,0.013-0.004,0.028-0.007,0.041c-0.002-0.013-0.005-0.028-0.006-0.041v0.082    c-0.125,0.74-0.623,2.256-2.599,2.275c0.278-0.012,2.282,0.015,2.599,2.101v0.072c0.001-0.013,0.005-0.023,0.006-0.036    c0.002,0.013,0.005,0.023,0.007,0.036v-0.072c0.317-2.086,2.321-2.113,2.6-2.101C3.272,29.838,2.775,28.322,2.649,27.582z"></path>
		<path fill="#BDA46D" d="M5.249,29.857c0.012,0,0.022,0.002,0.035,0.002C5.292,29.859,5.275,29.858,5.249,29.857z"></path>
		<path fill="#BDA46D" d="M0.037,29.857c-0.026,0.001-0.043,0.002-0.035,0.002C0.014,29.859,0.024,29.857,0.037,29.857z"></path>
	</g>
	<g>
		<path fill="#BDA46D" d="M27.399,36.832V36.75c-0.002,0.013-0.004,0.028-0.007,0.041c-0.002-0.013-0.005-0.028-0.006-0.041v0.082    c-0.125,0.74-0.623,2.256-2.599,2.275c0.278-0.012,2.282,0.015,2.599,2.101v0.072c0.001-0.013,0.005-0.023,0.006-0.036    c0.002,0.013,0.005,0.023,0.007,0.036v-0.072c0.317-2.086,2.321-2.113,2.6-2.101C28.022,39.088,27.525,37.572,27.399,36.832z"></path>
		<path fill="#BDA46D" d="M29.999,39.107c0.012,0,0.022,0.002,0.035,0.002C30.042,39.109,30.025,39.108,29.999,39.107z"></path>
		<path fill="#BDA46D" d="M24.787,39.107c-0.026,0.001-0.043,0.002-0.035,0.002C24.764,39.109,24.774,39.107,24.787,39.107z"></path>
	</g>
	
		<circle fill="none" stroke="#BDA46D" stroke-width="2" stroke-linecap="round" stroke-linejoin="round" stroke-miterlimit="10" cx="33.51" cy="20.29" r="10.875"></circle>
	<g>
		
			<circle fill="none" stroke="#FFFFFF" stroke-width="5" stroke-linecap="round" stroke-linejoin="round" stroke-miterlimit="10" cx="19.01" cy="20.29" r="10.875"></circle>
		
			<circle fill="none" stroke="#BDA46D" stroke-width="2" stroke-linecap="round" stroke-linejoin="round" stroke-miterlimit="10" cx="19.01" cy="20.29" r="10.875"></circle>
	</g>
	
		<circle fill="#FFFFFF" stroke="#BDA46D" stroke-width="2" stroke-linecap="round" stroke-linejoin="round" stroke-miterlimit="10" cx="18.885" cy="9.165" r="3"></circle>
</g>
</svg>
