<?xml version="1.0" encoding="UTF-8"?>
<!-- Generator: Adobe Illustrator 16.0.0, SVG Export Plug-In . SVG Version: 6.00 Build 0)  -->
<svg xmlns="http://www.w3.org/2000/svg" xmlns:xlink="http://www.w3.org/1999/xlink" version="1.1" id="Layer_1" x="0px" y="0px" width="36.91px" height="40.54px" viewBox="0 0 36.91 40.54" xml:space="preserve">
<g>
	<g>
		<path fill="#BDA46D" d="M2.649,14.207v-0.082c-0.002,0.013-0.005,0.028-0.007,0.041c-0.002-0.013-0.005-0.028-0.006-0.041v0.082    c-0.126,0.74-0.623,2.256-2.6,2.275c0.277-0.012,2.282,0.015,2.6,2.101v0.072c0.001-0.013,0.004-0.023,0.006-0.036    c0.002,0.013,0.006,0.023,0.007,0.036v-0.072c0.317-2.086,2.321-2.113,2.6-2.101C3.272,16.463,2.775,14.947,2.649,14.207z"></path>
		<path fill="#BDA46D" d="M5.249,16.482c0.013,0,0.022,0.002,0.034,0.002C5.291,16.484,5.275,16.483,5.249,16.482z"></path>
		<path fill="#BDA46D" d="M0.037,16.482c-0.026,0.001-0.043,0.002-0.035,0.002C0.014,16.484,0.024,16.482,0.037,16.482z"></path>
	</g>
	<g>
		<path fill="#BDA46D" d="M34.274,18.082V18c-0.002,0.013-0.005,0.028-0.007,0.041c-0.002-0.013-0.005-0.028-0.006-0.041v0.082    c-0.126,0.74-0.623,2.256-2.6,2.275c0.277-0.012,2.282,0.015,2.6,2.101v0.072c0.001-0.013,0.004-0.023,0.006-0.036    c0.002,0.013,0.006,0.023,0.007,0.036v-0.072c0.317-2.086,2.321-2.113,2.6-2.101C34.897,20.338,34.4,18.822,34.274,18.082z"></path>
		<path fill="#BDA46D" d="M36.874,20.357c0.013,0,0.022,0.002,0.034,0.002C36.916,20.359,36.9,20.358,36.874,20.357z"></path>
		<path fill="#BDA46D" d="M31.662,20.357c-0.026,0.001-0.043,0.002-0.035,0.002C31.639,20.359,31.649,20.357,31.662,20.357z"></path>
	</g>
	<g>
		<path fill="#BDA46D" d="M24.024,0.082V0c-0.002,0.013-0.005,0.028-0.007,0.041C24.016,0.028,24.013,0.013,24.012,0v0.082    c-0.126,0.74-0.623,2.256-2.6,2.275c0.277-0.012,2.282,0.015,2.6,2.101V4.53c0.001-0.013,0.004-0.023,0.006-0.036    c0.002,0.013,0.006,0.023,0.007,0.036V4.458c0.317-2.086,2.321-2.113,2.6-2.101C24.647,2.338,24.15,0.822,24.024,0.082z"></path>
		<path fill="#BDA46D" d="M26.624,2.357c0.013,0,0.022,0.002,0.034,0.002C26.666,2.359,26.65,2.358,26.624,2.357z"></path>
		<path fill="#BDA46D" d="M21.412,2.357c-0.026,0.001-0.043,0.002-0.035,0.002C21.389,2.359,21.399,2.357,21.412,2.357z"></path>
	</g>
	
		<circle fill="none" stroke="#BDA46D" stroke-width="2" stroke-linecap="round" stroke-linejoin="round" stroke-miterlimit="10" cx="17.76" cy="28.665" r="10.875"></circle>
	
		<ellipse fill="#FFFFFF" stroke="#BDA46D" stroke-width="2" stroke-linecap="round" stroke-linejoin="round" stroke-miterlimit="10" cx="17.822" cy="17.915" rx="8.438" ry="4.208"></ellipse>
	<path fill="#FFFFFF" stroke="#BDA46D" stroke-linecap="round" stroke-linejoin="round" stroke-miterlimit="10" d="M21.01,16.54   c0,0,4.25,0.75,0.75,2.5"></path>
</g>
</svg>
