<?xml version="1.0" encoding="UTF-8"?>
<!-- Generator: Adobe Illustrator 16.0.0, SVG Export Plug-In . SVG Version: 6.00 Build 0)  -->
<svg xmlns="http://www.w3.org/2000/svg" xmlns:xlink="http://www.w3.org/1999/xlink" version="1.1" id="Layer_1" x="0px" y="0px" width="41.932px" height="42.352px" viewBox="0 0 41.932 42.352" xml:space="preserve">
<g>
	<g>
		<circle fill="none" stroke="#BDA46D" stroke-width="2" stroke-miterlimit="10" cx="22.468" cy="30.977" r="11.375"></circle>
		
			<polygon fill="#FFFFFF" stroke="#BDA46D" stroke-width="2" stroke-linecap="round" stroke-linejoin="round" stroke-miterlimit="10" points="    13.093,14.602 18.218,19.727 27.093,19.727 31.781,15.04 28.593,10.852 16.593,10.852   "></polygon>
		
			<line fill="#FFFFFF" stroke="#BDA46D" stroke-linecap="round" stroke-linejoin="round" stroke-miterlimit="10" x1="13.093" y1="14.602" x2="30.593" y2="14.602"></line>
		<polyline fill="none" stroke="#BDA46D" stroke-linecap="round" stroke-linejoin="round" stroke-miterlimit="10" points="    24.343,11.352 25.343,15.102 22.593,19.602 19.593,14.852 20.593,11.352   "></polyline>
	</g>
	<g>
		<path fill="#BDA46D" d="M33.612,2.064V1.938c-0.003,0.02-0.007,0.043-0.011,0.063c-0.003-0.021-0.007-0.044-0.01-0.063v0.127    c-0.195,1.148-0.967,3.502-4.033,3.531c0.431-0.018,3.542,0.024,4.033,3.261v0.111c0.002-0.02,0.008-0.036,0.01-0.056    c0.003,0.02,0.008,0.037,0.011,0.056V8.856c0.491-3.237,3.602-3.279,4.034-3.261C34.579,5.566,33.807,3.212,33.612,2.064z"></path>
		<path fill="#BDA46D" d="M37.646,5.596c0.019,0,0.035,0.003,0.054,0.003C37.711,5.599,37.686,5.597,37.646,5.596z"></path>
		<path fill="#BDA46D" d="M29.558,5.596c-0.041,0.001-0.066,0.003-0.055,0.003C29.522,5.599,29.538,5.596,29.558,5.596z"></path>
	</g>
	<g>
		<path fill="#BDA46D" d="M4.612,15.814v-0.127c-0.003,0.02-0.007,0.043-0.011,0.063c-0.003-0.021-0.007-0.044-0.01-0.063v0.127    c-0.195,1.148-0.967,3.502-4.033,3.531c0.431-0.018,3.542,0.024,4.033,3.261v0.111c0.002-0.02,0.008-0.036,0.01-0.056    c0.003,0.02,0.008,0.037,0.011,0.056v-0.111c0.491-3.237,3.602-3.279,4.034-3.261C5.579,19.316,4.807,16.962,4.612,15.814z"></path>
		<path fill="#BDA46D" d="M8.646,19.346c0.019,0,0.035,0.003,0.054,0.003C8.711,19.349,8.686,19.347,8.646,19.346z"></path>
		<path fill="#BDA46D" d="M0.558,19.346c-0.041,0.001-0.066,0.003-0.055,0.003C0.522,19.349,0.538,19.346,0.558,19.346z"></path>
	</g>
	<g>
		<path fill="#BDA46D" d="M12.482,1.068V1c-0.001,0.011-0.004,0.023-0.006,0.034C12.475,1.023,12.472,1.011,12.471,1v0.068    c-0.105,0.617-0.52,1.883-2.169,1.899c0.232-0.01,1.905,0.013,2.169,1.753v0.06c0.001-0.011,0.004-0.02,0.005-0.03    c0.002,0.011,0.004,0.02,0.006,0.03V4.72c0.264-1.74,1.937-1.763,2.169-1.753C13.002,2.951,12.587,1.686,12.482,1.068z"></path>
		<path fill="#BDA46D" d="M14.651,2.967c0.01,0,0.019,0.001,0.029,0.001C14.687,2.969,14.673,2.968,14.651,2.967z"></path>
		<path fill="#BDA46D" d="M10.302,2.967c-0.022,0-0.036,0.001-0.029,0.001C10.283,2.969,10.292,2.967,10.302,2.967z"></path>
	</g>
	<g>
		<path fill="#BDA46D" d="M40.232,17.068V17c-0.001,0.011-0.004,0.023-0.006,0.034c-0.001-0.011-0.004-0.023-0.005-0.034v0.068    c-0.105,0.617-0.52,1.883-2.169,1.899c0.232-0.01,1.905,0.013,2.169,1.753v0.06c0.001-0.011,0.004-0.02,0.005-0.03    c0.002,0.011,0.004,0.02,0.006,0.03v-0.06c0.264-1.74,1.937-1.763,2.169-1.753C40.752,18.951,40.337,17.686,40.232,17.068z"></path>
		<path fill="#BDA46D" d="M38.052,18.967c-0.022,0-0.036,0.001-0.029,0.001C38.033,18.969,38.042,18.967,38.052,18.967z"></path>
	</g>
</g>
</svg>
