<svg xmlns="http://www.w3.org/2000/svg" width="38.12" height="40.845" xml:space="preserve"><g fill="#BDA46D"><path d="M4.112 2.273v-.127l-.011.063-.01-.063v.127C3.896 3.421 3.124 5.775.058 5.804c.431-.018 3.542.024 4.033 3.261v.111c.002-.02.008-.036.01-.056l.011.056v-.111c.491-3.237 3.602-3.279 4.034-3.261-3.067-.029-3.839-2.383-4.034-3.531zM8.146 5.804c.019 0 .035.003.054.003l-.054-.003zM.058 5.804a.264.264 0 0 0-.055.004c.019 0 .035-.004.055-.004z"/></g><g fill="#BDA46D"><path d="M4.107 25.193v-.068l-.006.034-.005-.034v.068c-.105.617-.52 1.883-2.169 1.899.232-.01 1.905.013 2.169 1.753v.06l.005-.03.006.03v-.06c.264-1.74 1.937-1.763 2.169-1.753-1.649-.016-2.064-1.281-2.169-1.899zM6.276 27.092l.029.001-.029-.001zM1.927 27.092a.124.124 0 0 0-.029.001c.01.001.019-.001.029-.001z"/></g><g fill="#BDA46D"><path d="M27.545 1.131v-.068l-.006.034-.005-.034v.068c-.105.617-.52 1.883-2.169 1.899.232-.01 1.905.013 2.169 1.753v.06l.005-.03.006.03v-.06c.264-1.74 1.937-1.763 2.169-1.753-1.649-.016-2.064-1.282-2.169-1.899z"/><path d="m29.714 3.03.029.001a.124.124 0 0 0-.029-.001zM25.365 3.03a.124.124 0 0 0-.029.001l.029-.001z"/></g><g fill="#BDA46D"><path d="M35.732 28.006v-.068l-.006.034-.005-.034v.068c-.105.617-.52 1.883-2.169 1.899.232-.01 1.905.013 2.169 1.753v.06l.005-.03.006.03v-.06c.264-1.74 1.937-1.763 2.169-1.753-1.649-.016-2.064-1.282-2.169-1.899zM37.901 29.905l.029.001a.124.124 0 0 0-.029-.001zM33.552 29.905a.124.124 0 0 0-.029.001l.029-.001z"/></g><g fill="#BDA46D"><path d="M35.92.068V0l-.006.034L35.909 0v.068c-.105.617-.52 1.883-2.169 1.899.232-.01 1.905.013 2.169 1.753v.06l.005-.03.006.03v-.06c.264-1.74 1.937-1.763 2.169-1.753C36.44 1.951 36.025.686 35.92.068zM38.089 1.967l.029.001-.029-.001zM33.74 1.967a.124.124 0 0 0-.029.001c.01.001.018-.001.029-.001z"/></g><path fill="#BDA46D" d="M27.216 26.298c2.683-2.179 4.418-5.479 4.418-9.196 0-6.548-5.327-11.875-11.875-11.875S7.885 10.554 7.885 17.102c0 3.695 1.712 6.983 4.367 9.162L8.401 38.586a.5.5 0 0 0 .77.555l3.988-2.873 1.385 4.119c.069.204.26.341.474.341h.005a.5.5 0 0 0 .472-.351l3.576-11.44c.1.005.197.018.298.021.131.004.26.02.392.02.035 0 .069-.005.104-.005.146-.001.288-.015.433-.022l2.291 11.493a.498.498 0 0 0 .491.402c.19 0 .367-.109.451-.284l2.124-4.432 3.189 2.952c.097.09.216.124.35.133a.49.49 0 0 0 .51-.5.495.495 0 0 0-.056-.23l-2.432-12.187zM15 38.606l-1.109-3.3a.502.502 0 0 0-.766-.247l-3.321 2.393L13.1 26.904c.084.058.163.122.249.177a11.794 11.794 0 0 0 4.706 1.75L15 38.606zm4.76-10.629c-.029 0-.056-.004-.084-.004h-.011a11.112 11.112 0 0 1-1.021-.052 10.808 10.808 0 0 1-5.836-2.463 10.854 10.854 0 0 1-3.924-8.354c0-5.997 4.878-10.875 10.875-10.875s10.875 4.878 10.875 10.875a10.854 10.854 0 0 1-4.899 9.076 10.8 10.8 0 0 1-5.06 1.752 11.51 11.51 0 0 1-.915.045zm6.074 6.957a.503.503 0 0 0-.791.151l-1.769 3.691-1.978-9.92a11.8 11.8 0 0 0 4.646-1.635c.133-.082.256-.175.385-.261l2.061 10.34-2.554-2.366z"/><circle fill="none" stroke="#BDA46D" stroke-miterlimit="10" cx="19.593" cy="17.019" r="8.125"/><path fill="#BDA46D" d="M21.988 19.936a2.45 2.45 0 0 1-.636.9c-.272.24-.584.42-.936.54s-.732.18-1.14.18c-.512 0-.958-.08-1.338-.24a3.006 3.006 0 0 1-.972-.642 4.215 4.215 0 0 1-.678-.882l.864-.588c.128.24.298.466.51.678.212.212.458.384.738.516.28.132.572.198.876.198.4 0 .74-.08 1.02-.24.28-.16.494-.384.642-.672s.222-.624.222-1.008-.082-.72-.246-1.008-.388-.512-.672-.672a1.934 1.934 0 0 0-.966-.24c-.264 0-.506.022-.726.066-.22.044-.44.12-.66.228-.22.108-.474.262-.762.462l1.104-4.476h3.96v.9h-3.168l-.564 2.22a2.762 2.762 0 0 1 1.248-.312c.48 0 .91.12 1.29.36s.678.572.894.996c.216.424.324.916.324 1.476 0 .48-.076.9-.228 1.26z"/><path fill="#FFF" stroke="#BDA46D" stroke-linecap="round" stroke-linejoin="round" stroke-miterlimit="10" d="m26.343 21.852 2.25 2.313M27.718 17.852l3.375.313M27.281 14.04l2.875-1.375M24.718 10.727l1.75-2.687M20.906 9.04l.187-3.125M16.531 9.352l-1.188-2.687M13.093 11.977l-2.437-1.562M11.531 15.102l-2.625-.687M11.718 19.477l-2.812.438M13.593 22.665l-2 2.25M16.968 24.79l-.562 3.062M22.343 24.727l1 2.938"/></svg>