<svg xmlns="http://www.w3.org/2000/svg" width="35.405" height="25.363" xml:space="preserve"><g fill="none" stroke="#BDA46D" stroke-linecap="round" stroke-linejoin="round" stroke-miterlimit="10"><path d="M30.337 4.023h-5.474V.5H3.546A3.054 3.054 0 0 0 .5 3.545v16.75h3.046a4.561 4.561 0 0 0 4.567 4.568 4.562 4.562 0 0 0 4.569-4.568h9.136a4.562 4.562 0 0 0 4.569 4.568 4.561 4.561 0 0 0 4.567-4.568h1.201c2.75 0 2.75-2.856 2.75-2.856v-7.417l-4.568-5.999z"/><path d="M27.738 4.356v6.166h7"/><circle cx="8.197" cy="20.356" r="4.5"/><circle cx="26.363" cy="20.356" r="4.5"/><circle cx="26.363" cy="20.356" r="2.125"/><circle cx="8.113" cy="20.356" r="2.125"/><path d="M24.946 3.731v8.5"/></g></svg>