<svg xmlns="http://www.w3.org/2000/svg" width="38.236" height="14.843" xml:space="preserve"><g fill="none" stroke="#BDA46D" stroke-linecap="round" stroke-linejoin="round" stroke-miterlimit="10"><path d="m3.628 13.464.15.879-1.252-.658-1.252.658.24-1.395L.5 11.961l1.4-.203.626-1.269.626 1.269 1.401.203-1.014.987.089.516M36.812 13.464l.15.879-1.252-.658-1.252.658.239-1.395-1.013-.987 1.4-.203.626-1.269.626 1.269 1.4.203-1.013.987.089.516M10.795 11.489l.218 1.27-1.811-.951-1.81.951.346-2.015-1.465-1.427 2.024-.294.905-1.834.905 1.834 2.024.294-1.465 1.427.129.745M31.295 11.489l.218 1.27-1.811-.951-1.81.951.346-2.015-1.465-1.427 2.024-.294.905-1.834.905 1.834 2.024.294-1.465 1.427.129.745M23.183 10.551l.509 2.97-4.23-2.224-4.232 2.224.81-4.711-3.425-3.336 4.732-.687L19.462.5l2.115 4.287 4.731.687-3.424 3.336.299 1.741"/></g></svg>