<svg xmlns="http://www.w3.org/2000/svg" width="21.802" height="32.25" xml:space="preserve"><g fill="#BDA46D"><path d="M19.406 11.343c.003-.117.014-.231.014-.349C19.419 4.932 15.61 0 10.927 0 6.245 0 2.435 4.932 2.435 10.995c0 .112.01.222.013.333C1.043 11.689 0 12.92 0 14.394v14.673c0 1.755 1.474 3.183 3.286 3.183h15.231c1.812 0 3.285-1.428 3.285-3.183V14.394c0-1.456-1.018-2.672-2.396-3.051zm-13.971-.348C5.435 6.586 7.898 3 10.927 3s5.493 3.586 5.493 7.995c0 .073-.006.143-.007.215H5.442c-.001-.072-.007-.143-.007-.215zM10.927 2c-3.58 0-6.492 4.035-6.492 8.995 0 .073.007.143.008.215h-1c-.001-.072-.008-.143-.008-.215C3.435 5.483 6.796 1 10.927 1s7.493 4.483 7.493 9.995c0 .073-.007.143-.008.215h-1c.001-.072.008-.143.008-.215C17.419 6.035 14.507 2 10.927 2zm9.875 27.066c0 1.204-1.025 2.183-2.285 2.183H3.286C2.025 31.25 1 30.27 1 29.066V14.394c0-.941.63-1.738 1.506-2.044.156-.054.32-.09.49-.111.096-.012.19-.028.289-.028h15.231c.117 0 .229.017.34.033.169.025.333.063.489.122.851.318 1.456 1.105 1.456 2.029v14.671z"/><path d="M13.999 18.916a3.295 3.295 0 0 0-.493-.867 3.17 3.17 0 0 0-2.485-1.216 3.177 3.177 0 0 0-3.011 2.186 3.166 3.166 0 0 0-.177 1.001c0 .023.004.046.005.069.004.212.032.418.077.62a3.178 3.178 0 0 0 1.543 2.09v3.222c0 .861.701 1.563 1.563 1.563s1.563-.701 1.563-1.563v-3.222a3.178 3.178 0 0 0 1.378-1.547c.088-.21.148-.433.189-.661.034-.186.057-.375.057-.569 0-.018-.005-.034-.005-.051a3.15 3.15 0 0 0-.204-1.055zm-1.123 2.244a2.153 2.153 0 0 1-.717.7c-.099.061-.188.134-.298.18a.5.5 0 0 0-.303.53c.006.044.015.083.024.076v3.375a.564.564 0 0 1-1.126 0l-.003-3.325a1.86 1.86 0 0 0 .027-.125.5.5 0 0 0-.303-.53c-.076-.032-.135-.085-.206-.125a2.176 2.176 0 0 1-.772-.679 2.17 2.17 0 0 1-.28-.622 2.177 2.177 0 0 1-.088-.594 2.162 2.162 0 0 1 .23-.958c.074-.151.166-.29.271-.419a2.175 2.175 0 0 1 1.686-.811c.651 0 1.231.292 1.632.746a2.188 2.188 0 0 1 .47.869c.05.184.085.373.085.572 0 .182-.036.355-.078.526a2.08 2.08 0 0 1-.251.614z"/></g></svg>