<svg xmlns="http://www.w3.org/2000/svg" width="49" height="42.25" xml:space="preserve"><circle fill="#FCCE87" cx="32.977" cy="26.107" r="14.946"/><g fill="#3A528D"><path d="M38.421 1.442h-33a2.603 2.603 0 0 0-2.6 2.6v25.75c0 1.434 1.166 2.6 2.6 2.6h33c1.434 0 2.6-1.167 2.6-2.6V4.042c0-1.433-1.167-2.6-2.6-2.6zm-33 1.201h33c.771 0 1.4.628 1.4 1.4v3.4h-35.8v-3.4c0-.772.628-1.4 1.4-1.4zm33 28.549h-33c-.771 0-1.4-.628-1.4-1.4V8.643h35.801v21.15a1.403 1.403 0 0 1-1.401 1.399z"/><path d="M25.843 17.863c-.004-2.429-.131-6.567-3.922-6.567s-3.918 4.139-3.922 6.567a2.599 2.599 0 0 0-2.146 2.554v4.813c0 1.434 1.166 2.6 2.6 2.6h6.938c1.434 0 2.6-1.167 2.6-2.6v-4.813a2.602 2.602 0 0 0-2.148-2.554zm-3.922-5.367c2.425 0 2.705 2.585 2.722 5.321H19.2c.016-2.736.296-5.321 2.721-5.321zM26.79 25.23c0 .772-.629 1.4-1.4 1.4h-6.938c-.771 0-1.4-.628-1.4-1.4v-4.813c0-.772.629-1.4 1.4-1.4h6.938c.771 0 1.4.628 1.4 1.4v4.813z"/></g><circle fill="#3A528D" cx="37.515" cy="5.292" r=".625"/><circle fill="#3A528D" cx="33.602" cy="5.292" r=".625"/><circle fill="#3A528D" cx="29.688" cy="5.292" r=".625"/><path fill="#3A528D" d="M22.834 21.944a1.058 1.058 0 1 0-1.458.977c-.001.016-.007.03-.007.047v1.275c0 .327.182.592.406.592s.406-.265.406-.592v-1.275c0-.017-.006-.031-.007-.047.388-.158.66-.535.66-.977z"/></svg>