<?xml version="1.0" encoding="UTF-8"?>
<svg width="73px" height="70px" viewBox="0 0 73 70" version="1.1" xmlns="http://www.w3.org/2000/svg" xmlns:xlink="http://www.w3.org/1999/xlink">
    <title>Group 6</title>
    <g id="Page-1" stroke="none" stroke-width="1" fill="none" fill-rule="evenodd">
        <g id="Baby" transform="translate(-1024.000000, -3792.000000)">
            <g id="Group-3" transform="translate(0.000000, 3136.000000)">
                <g id="Group-6" transform="translate(1024.000000, 657.000000)">
                    <ellipse id="Oval" fill="#A4DEDF" cx="34" cy="37.5" rx="34" ry="28.5"></ellipse>
                    <g id="customer-care" transform="translate(5.000000, 0.000000)" stroke="#3E5389">
                        <g id="Group" stroke-width="2.44">
                            <path d="M5.17181818,27.7309091 C5.90318122,12.6313148 18.3586131,0.764571603 33.4759091,0.764571603 C48.5932051,0.764571603 61.048637,12.6313148 61.78,27.7309091" id="Path"></path>
                            <path d="M5.17181818,50.3609091 L5.17181818,50.3609091 C2.56955286,50.3609091 0.46,48.2513562 0.46,45.6490909 L0.46,32.3763636 C0.442236113,31.1152532 0.930805231,29.8996641 1.81637524,29.0016213 C2.70194525,28.1035785 3.91058262,27.5981818 5.17181818,27.5981818 L5.17181818,27.5981818 C6.43305375,27.5981818 7.64169111,28.1035785 8.52726112,29.0016213 C9.41283113,29.8996641 9.90140025,31.1152532 9.88363636,32.3763636 L9.88363636,45.6490909 C9.88363636,48.2513562 7.77408351,50.3609091 5.17181818,50.3609091 Z" id="Path"></path>
                            <path d="M61.78,50.3609091 L61.78,50.3609091 C60.5303481,50.3609091 59.3318787,49.8644868 58.4482414,48.9808495 C57.5646041,48.0972122 57.0681818,46.8987428 57.0681818,45.6490909 L57.0681818,32.3763636 C57.0504179,31.1152532 57.538987,29.8996641 58.4245571,29.0016213 C59.3101271,28.1035785 60.5187644,27.5981818 61.78,27.5981818 L61.78,27.5981818 C63.0412356,27.5981818 64.2498729,28.1035785 65.1354429,29.0016213 C66.021013,29.8996641 66.5095821,31.1152532 66.4918182,32.3763636 L66.4918182,45.6490909 C66.4918182,46.8987428 65.9953959,48.0972122 65.1117586,48.9808495 C64.2281213,49.8644868 63.0296519,50.3609091 61.78,50.3609091 Z" id="Path"></path>
                            <path d="M61.78,50.3609091 L61.78,50.3609091 C61.7070245,58.1417626 55.3592902,64.40051 47.5781818,64.3636364 L44.1936364,64.3636364" id="Path"></path>
                            <path d="M41.1409091,67.6154545 L34.5045455,67.6154545 C32.8340002,67.4745574 31.5736384,66.0383312 31.6509091,64.3636364 L31.6509091,64.3636364 C31.6861034,62.6924567 33.0324567,61.3461034 34.7036364,61.3109091 L41.34,61.3109091 C43.0111797,61.3461034 44.3575329,62.6924567 44.3927273,64.3636364 L44.3927273,64.3636364 C44.4307621,65.2371778 44.1003914,66.0865741 43.4821191,66.7048464 C42.8638468,67.3231187 42.0144505,67.6534894 41.1409091,67.6154545 L41.1409091,67.6154545 Z" id="Path"></path>
                        </g>
                        <g id="Group" transform="translate(17.000000, 26.000000)" fill="#3E5389" fill-rule="nonzero" stroke-width="0.5">
                            <path d="M7.8,12.8 L0.133333333,12.8 L0.133333333,11.6666667 L3.2,8.6 C4.13333333,7.66666667 4.73333333,6.93333333 5.06666667,6.53333333 L5.73333333,5.66666667 C5.80296059,5.24731494 5.80296059,4.81935172 5.73333333,4.4 C5.74075814,3.86236343 5.55103375,3.34062134 5.2,2.93333333 C4.74875128,2.56784465 4.18029218,2.37835828 3.6,2.4 C3.13818969,2.30478862 2.66181031,2.30478862 2.2,2.4 C1.68072237,2.59368857 1.2049139,2.88823667 0.8,3.26666667 L0.266666667,2.33333333 C1.25163925,1.48828424 2.50230507,1.01633488 3.8,1 C4.7264325,0.937969431 5.63902754,1.250173 6.33333333,1.86666667 C6.98300163,2.40510446 7.33097582,3.22532935 7.26666667,4.06666667 C7.25738668,4.83914447 7.05085264,5.59643595 6.66666667,6.26666667 C6.02574719,7.28625113 5.23971604,8.20703048 4.33333333,9 L1.66666667,11.5333333 L7.66666667,11.5333333 L7.8,12.8 Z" id="Path"></path>
                            <path d="M17.6666667,10.1333333 L15.9333333,10.1333333 L15.9333333,12.8 L15,12.8 L15,10.1333333 L9,10.1333333 L9,9 L14.5333333,1.13333333 L15.9333333,1.13333333 L15.9333333,8.93333333 L17.6666667,8.93333333 L17.6666667,10.1333333 Z M15,8.93333333 L15,5.06666667 C15,4.26666667 15,3.46666667 15,2.46666667 L15,2.46666667 C14.8000572,2.9131334 14.5542949,3.3376319 14.2666667,3.73333333 L10.6666667,8.93333333 L15,8.93333333 Z" id="Shape"></path>
                            <polygon id="Path" points="23.8 1.13333333 19.4666667 12.8 18.1333333 12.8 22.4666667 1.13333333"></polygon>
                            <polygon id="Path" points="26.2 12.8 31.0666667 2.4 24.4 2.4 24.4 1.13333333 32.4666667 1.13333333 32.4666667 2.2 27.6666667 12.8"></polygon>
                        </g>
                    </g>
                </g>
            </g>
        </g>
    </g>
</svg>