<svg xmlns="http://www.w3.org/2000/svg" width="37.003" height="38.433" xml:space="preserve"><circle fill="#A1D6D6" cx="17.471" cy="20.399" r="16.381"/><g fill="#3A528D"><path d="M32.315 10.121c-2.495-5.25-7.909-8.614-13.987-8.614-6.314 0-11.631 3.271-14.069 8.579h-.137A3.308 3.308 0 0 0 .818 13.39v7.117a3.307 3.307 0 0 0 3.304 3.304h.111c1.68 3.71 4.784 6.437 8.847 7.763-.001.018-.008.033-.008.051 0 1.389 1.715 2.478 3.904 2.478s3.904-1.088 3.904-2.478-1.715-2.478-3.904-2.478c-1.52 0-2.795.531-3.443 1.316-3.657-1.172-6.475-3.568-8.059-6.829 1.324-.431 2.289-1.663 2.289-3.128V13.39a3.298 3.298 0 0 0-2.272-3.123c2.305-4.689 7.129-7.56 12.837-7.56 5.424 0 10.275 2.888 12.668 7.442a3.306 3.306 0 0 0-2.67 3.24v7.117a3.307 3.307 0 0 0 3.304 3.304h.338a3.308 3.308 0 0 0 3.304-3.304V13.39c-.001-1.702-1.299-3.093-2.957-3.269zM16.977 30.348c1.548 0 2.705.674 2.705 1.277s-1.157 1.277-2.705 1.277-2.705-.674-2.705-1.277 1.157-1.277 2.705-1.277zM6.564 13.39v7.117c0 1.16-.944 2.104-2.104 2.104h-.338a2.107 2.107 0 0 1-2.104-2.104V13.39c0-1.16.944-2.104 2.104-2.104h.338c1.16 0 2.104.944 2.104 2.104zm27.508 7.117c0 1.16-.944 2.104-2.104 2.104h-.338a2.107 2.107 0 0 1-2.104-2.104V13.39c0-1.16.944-2.104 2.104-2.104h.338c1.16 0 2.104.944 2.104 2.104v7.117z"/><path d="M10.429 18.956a.599.599 0 0 0 .475.965h.002l2.519-.009a.6.6 0 0 0 .598-.602c-.001-.332-.273-.579-.602-.598l-1.305.005c.775-1.033 1.617-2.2 1.732-2.542.153-.454.107-1.193-.276-1.727-.306-.424-.78-.657-1.339-.657h-.007c-.718.002-1.146.295-1.377.54-.522.552-.501 1.295-.497 1.378a.598.598 0 0 0 .622.564.604.604 0 0 0 .577-.619c-.002-.088.024-.35.173-.502.103-.106.273-.161.506-.161.221-.042.311.08.368.158.148.206.146.543.119.625-.124.287-1.285 1.874-2.288 3.182z"/><path d="M18.063 18.091a.6.6 0 0 0-.6-.598h-.083l-.012-3.121a.6.6 0 0 0-1.111-.31l-2.276 3.729a.6.6 0 0 0 .511.913h.002l1.689-.006.003.604a.6.6 0 0 0 .6.598h.002a.6.6 0 0 0 .598-.602l-.002-.605h.081a.6.6 0 0 0 .598-.602zm-2.499-.591.612-1.003.004 1.001-.616.002zM21.029 13.561a.602.602 0 0 0-.757.382l-1.778 5.393a.6.6 0 1 0 1.139.376l1.778-5.393a.598.598 0 0 0-.382-.758zM25.227 13.744l-2.525.009a.6.6 0 0 0-.598.602c.001.331.253.569.602.598l1.602-.006-1.802 4.088a.6.6 0 1 0 1.098.484l2.175-4.933a.601.601 0 0 0-.047-.571.66.66 0 0 0-.505-.271z"/></g></svg>