<?xml version="1.0" encoding="UTF-8"?>
<svg width="95px" height="76px" viewBox="0 0 95 76" version="1.1" xmlns="http://www.w3.org/2000/svg" xmlns:xlink="http://www.w3.org/1999/xlink">
    <title>Group 4</title>
    <g id="Page-1" stroke="none" stroke-width="1" fill="none" fill-rule="evenodd">
        <g id="Baby" transform="translate(-1024.000000, -3268.000000)">
            <g id="Group-3" transform="translate(0.000000, 3136.000000)">
                <g id="Group-4" transform="translate(1025.000000, 133.000000)">
                    <ellipse id="Oval" fill="#F8D092" cx="60" cy="46.5" rx="34" ry="28.5"></ellipse>
                    <g id="safeshop" stroke="#3E5389" stroke-width="2">
                        <g id="Group">
                            <rect id="Rectangle" x="0.361486726" y="0.367443182" width="73.0019823" height="57.1580114"></rect>
                            <line x1="0.361486726" y1="9.94485795" x2="73.363469" y2="9.94485795" id="Path"></line>
                            <line x1="52.2453097" y1="5.19446023" x2="55.1319646" y2="5.19446023" id="Path"></line>
                            <line x1="58.8542301" y1="5.19446023" x2="61.740885" y2="5.19446023" id="Path"></line>
                            <line x1="65.4631504" y1="5.19446023" x2="68.3498053" y2="5.19446023" id="Path"></line>
                        </g>
                        <g id="Group" transform="translate(26.000000, 18.000000)">
                            <rect id="Rectangle" x="0.0624285714" y="12.763913" width="22.6714286" height="18.1363478"></rect>
                            <path d="M3.61428571,12.763913 L3.61428571,8.308 C3.61428571,3.990574 6.99773382,0.490608696 11.1714286,0.490608696 C15.3451233,0.490608696 18.7285714,3.990574 18.7285714,8.308 L18.7285714,12.763913" id="Path"></path>
                            <line x1="11.3981429" y1="27.0697391" x2="11.3981429" y2="23.0046957" id="Path"></line>
                            <path d="M13.892,20.4249565 C13.6784733,21.6986481 12.6100238,22.6287202 11.3603571,22.6287202 C10.1106905,22.6287202 9.04224097,21.6986481 8.82871429,20.4249565 C8.653765,19.3813799 9.09447554,18.3299602 9.95045411,17.7487796 C10.8064327,17.1675989 11.9142816,17.1675989 12.7702602,17.7487796 C13.6262387,18.3299602 14.0669493,19.3813799 13.892,20.4249565 Z" id="Path"></path>
                        </g>
                    </g>
                </g>
            </g>
        </g>
    </g>
</svg>