<?xml version="1.0" encoding="utf-8"?>
<!-- Generator: Adobe Illustrator 16.0.0, SVG Export Plug-In . SVG Version: 6.00 Build 0)  -->
<!DOCTYPE svg PUBLIC "-//W3C//DTD SVG 1.1//EN" "http://www.w3.org/Graphics/SVG/1.1/DTD/svg11.dtd">
<svg version="1.1" xmlns="http://www.w3.org/2000/svg" xmlns:xlink="http://www.w3.org/1999/xlink" x="0px" y="0px" width="49px"
	 height="42.25px" viewBox="0 0 49 42.25" enable-background="new 0 0 49 42.25" xml:space="preserve">
<g id="Layer_1">
</g>
<g id="Layer_2">
	<g>
		<circle fill="#FCCE87" cx="32.977" cy="26.107" r="14.946"/>
		<g>
			<path fill="#3A528D" d="M38.421,1.442h-33c-1.434,0-2.6,1.167-2.6,2.6v25.75c0,1.434,1.166,2.6,2.6,2.6h33
				c1.434,0,2.6-1.167,2.6-2.6V4.042C41.021,2.609,39.854,1.442,38.421,1.442z M5.421,2.643h33c0.771,0,1.4,0.628,1.4,1.4v3.4H4.021
				v-3.4C4.021,3.271,4.649,2.643,5.421,2.643z M38.421,31.192h-33c-0.771,0-1.4-0.628-1.4-1.4V8.643h35.801v21.15
				C39.821,30.564,39.192,31.192,38.421,31.192z"/>
			<path fill="#3A528D" d="M25.843,17.863c-0.004-2.429-0.131-6.567-3.922-6.567s-3.918,4.139-3.922,6.567
				c-1.218,0.216-2.146,1.276-2.146,2.554v4.813c0,1.434,1.166,2.6,2.6,2.6h6.938c1.434,0,2.6-1.167,2.6-2.6v-4.813
				C27.989,19.139,27.061,18.079,25.843,17.863z M21.921,12.496c2.425,0,2.705,2.585,2.722,5.321h-5.443
				C19.216,15.081,19.496,12.496,21.921,12.496z M26.79,25.23c0,0.772-0.629,1.4-1.4,1.4h-6.938c-0.771,0-1.4-0.628-1.4-1.4v-4.813
				c0-0.772,0.629-1.4,1.4-1.4h6.938c0.771,0,1.4,0.628,1.4,1.4V25.23z"/>
		</g>
		<circle fill="#3A528D" cx="37.515" cy="5.292" r="0.625"/>
		<circle fill="#3A528D" cx="33.602" cy="5.292" r="0.625"/>
		<circle fill="#3A528D" cx="29.688" cy="5.292" r="0.625"/>
		<path fill="#3A528D" d="M22.834,21.944c0-0.584-0.473-1.058-1.058-1.058s-1.058,0.474-1.058,1.058
			c0,0.442,0.272,0.819,0.658,0.977c-0.001,0.016-0.007,0.03-0.007,0.047v1.275c0,0.327,0.182,0.592,0.406,0.592
			s0.406-0.265,0.406-0.592v-1.275c0-0.017-0.006-0.031-0.007-0.047C22.562,22.763,22.834,22.386,22.834,21.944z"/>
	</g>
</g>
</svg>
