<?xml version="1.0" encoding="utf-8"?>
<!-- Generator: Adobe Illustrator 16.0.0, SVG Export Plug-In . SVG Version: 6.00 Build 0)  -->
<!DOCTYPE svg PUBLIC "-//W3C//DTD SVG 1.1//EN" "http://www.w3.org/Graphics/SVG/1.1/DTD/svg11.dtd">
<svg version="1.1" xmlns="http://www.w3.org/2000/svg" xmlns:xlink="http://www.w3.org/1999/xlink" x="0px" y="0px" width="37px"
	 height="39.375px" viewBox="0 0 37 39.375" enable-background="new 0 0 37 39.375" xml:space="preserve">
<g id="Layer_1">
</g>
<g id="Layer_2">
	<g>
		<circle fill="#D7D1E1" cx="18.841" cy="17.924" r="16.381"/>
		<g>
			<path fill="#3A528D" d="M30.172,25.825c1.251-0.681,2.111-1.992,2.111-3.514c0-2.214-1.801-4.015-4.015-4.015
				s-4.015,1.801-4.015,4.015c0,1.521,0.859,2.831,2.109,3.512c-1.758,0.609-3.234,2.038-4.132,3.944
				c-0.467-0.319-0.97-0.568-1.494-0.751c1.255-0.68,2.118-1.992,2.118-3.517c0-2.214-1.801-4.015-4.016-4.015
				c-2.213,0-4.014,1.801-4.014,4.015c0,1.522,0.86,2.833,2.111,3.513c-0.626,0.219-1.218,0.54-1.76,0.951
				c-0.887-2.002-2.397-3.512-4.213-4.143c1.248-0.682,2.105-1.991,2.105-3.51c0-2.214-1.801-4.015-4.014-4.015
				c-2.215,0-4.016,1.801-4.016,4.015c0,1.522,0.861,2.833,2.113,3.514c-2.836,0.981-4.938,4.099-5.065,7.899
				c-0.006,0.163,0.056,0.32,0.168,0.437c0.113,0.117,0.269,0.183,0.432,0.183h9.595c-0.236,0.806-0.38,1.667-0.41,2.569
				c-0.006,0.163,0.056,0.32,0.168,0.437c0.113,0.117,0.27,0.183,0.432,0.183H25.21c0.162,0,0.318-0.066,0.432-0.183
				c0.112-0.117,0.174-0.274,0.168-0.437c-0.03-0.902-0.174-1.763-0.41-2.569h9.238c0.162,0,0.318-0.066,0.432-0.183
				c0.112-0.117,0.174-0.274,0.168-0.437C35.111,29.923,33.008,26.806,30.172,25.825z M25.453,22.311
				c0-1.552,1.264-2.814,2.815-2.814s2.815,1.263,2.815,2.814c0,1.552-1.264,2.815-2.815,2.815S25.453,23.863,25.453,22.311z
				 M16.025,25.5c0-1.552,1.263-2.815,2.814-2.815c1.553,0,2.816,1.263,2.816,2.815s-1.264,2.815-2.816,2.815
				C17.288,28.315,16.025,27.052,16.025,25.5z M6.24,22.311c0-1.552,1.264-2.814,2.816-2.814c1.552,0,2.814,1.263,2.814,2.814
				c0,1.552-1.263,2.815-2.814,2.815C7.504,25.126,6.24,23.863,6.24,22.311z M3.329,33.144c0.361-3.662,2.79-6.446,5.729-6.446
				c2.274,0,4.239,1.672,5.18,4.124c-0.607,0.657-1.121,1.44-1.514,2.322H3.329z M24.569,36.333H13.113
				c0.068-0.701,0.218-1.366,0.427-1.989c0.143-0.424,0.32-0.822,0.52-1.2c0.175-0.332,0.366-0.646,0.579-0.936
				c0.293-0.397,0.622-0.747,0.977-1.053c0.294-0.253,0.6-0.484,0.928-0.666c0.704-0.389,1.481-0.604,2.298-0.604
				c1.077,0,2.084,0.377,2.947,1.031c0.352,0.266,0.677,0.579,0.976,0.932c0.326,0.387,0.619,0.82,0.869,1.295
				c0.198,0.377,0.371,0.777,0.514,1.2C24.355,34.966,24.5,35.633,24.569,36.333z M24.958,33.144
				c-0.445-1.003-1.044-1.886-1.765-2.592c0.979-2.306,2.885-3.854,5.075-3.854c2.939,0,5.368,2.785,5.729,6.446H24.958z"/>
			<path fill="#3A528D" d="M18.458,18.718c0.1,0.069,0.219,0.106,0.341,0.106h0.084c0.122,0,0.241-0.037,0.341-0.106
				c0.667-0.461,6.522-4.598,6.671-7.862c0.07-1.561-0.342-2.856-1.193-3.748c-0.713-0.746-1.677-1.14-2.805-1.14
				c-1.425,0.005-2.409,0.502-3.056,1.039c-0.647-0.537-1.634-1.034-3.071-1.039c-1.111,0-2.076,0.394-2.789,1.14
				c-0.852,0.891-1.264,2.187-1.193,3.748C11.937,14.121,17.791,18.257,18.458,18.718z M13.849,7.937
				c0.48-0.503,1.145-0.769,1.933-0.769c1.095,0.003,1.975,0.364,2.615,1.07c0.227,0.251,0.662,0.251,0.889,0
				c0.641-0.707,1.521-1.067,2.627-1.07c0.776,0,1.44,0.266,1.921,0.769c0.611,0.64,0.917,1.657,0.862,2.864
				c-0.097,2.142-4.01,5.39-5.854,6.718c-1.845-1.328-5.757-4.575-5.854-6.718C12.932,9.593,13.237,8.576,13.849,7.937z"/>
		</g>
	</g>
</g>
</svg>
