<?xml version="1.0" encoding="UTF-8"?>
<svg width="77px" height="70px" viewBox="0 0 77 70" version="1.1" xmlns="http://www.w3.org/2000/svg" xmlns:xlink="http://www.w3.org/1999/xlink">
    <title>Group 5</title>
    <g id="Page-1" stroke="none" stroke-width="1" fill="none" fill-rule="evenodd">
        <g id="Baby" transform="translate(-1024.000000, -3541.000000)">
            <g id="Group-3" transform="translate(0.000000, 3136.000000)">
                <g id="Group-5" transform="translate(1025.000000, 406.000000)">
                    <ellipse id="Oval" fill="#D6D1E0" cx="36" cy="28.5" rx="34" ry="28.5"></ellipse>
                    <g id="Group-2" transform="translate(0.000000, 1.000000)" stroke="#3E5389">
                        <g id="customers2" transform="translate(0.000000, 27.000000)" stroke-width="2.44">
                            <g id="Group" transform="translate(21.000000, 7.000000)">
                                <circle id="Oval" cx="16.72" cy="8.24" r="7.6"></circle>
                                <path d="M32.8,32 C32.8,23.163444 25.636556,16 16.8,16 C7.963444,16 0.8,23.163444 0.8,32 L32.8,32 Z" id="Path"></path>
                            </g>
                            <g id="Group">
                                <g transform="translate(50.000000, 0.000000)" id="Path">
                                    <path d="M16.12,8.36 C16.2835592,11.6271441 14.4415251,14.6647129 11.4688028,16.0299618 C8.4960805,17.3952107 4.99165422,16.813051 2.62001025,14.5599892 C0.248366274,12.3069274 -0.512624537,8.83694091 0.698483215,5.79815818 C1.90959097,2.75937544 4.84876693,0.764091475 8.12,0.759993622 C12.3866679,0.75466349 15.9066698,4.09866524 16.12,8.36 Z"></path>
                                    <path d="M0.04,18.44 C4.9929209,15.3031522 11.2648045,15.126348 16.3865746,17.9791906 C21.5083447,20.8320332 24.6596867,26.2576048 24.6,32.12 L2.28,32.12"></path>
                                </g>
                                <g id="Path">
                                    <path d="M24.52,8.36 C24.6835592,11.6271441 22.8415251,14.6647129 19.8688028,16.0299618 C16.8960805,17.3952107 13.3916542,16.813051 11.0200102,14.5599892 C8.64836627,12.3069274 7.88737546,8.83694091 9.09848321,5.79815818 C10.309591,2.75937544 13.2487669,0.764091475 16.52,0.759993622 C20.7866679,0.75466349 24.3066698,4.09866524 24.52,8.36 Z"></path>
                                    <path d="M23,32.12 L0.76,32.12 C0.76,23.283444 7.923444,16.12 16.76,16.12 C19.5882496,16.1499148 22.3545536,16.952143 24.76,18.44"></path>
                                </g>
                            </g>
                        </g>
                        <g id="heart" transform="translate(21.409091, 0.000000)" stroke-width="2.5">
                            <path d="M28.5909091,7.38548666 C28.6058353,3.85221184 26.135962,0.807660585 22.7090542,0.135154258 C19.2821464,-0.537352069 15.867165,1.35233825 14.5765749,4.6352864 C13.2625059,1.39211883 9.86944702,-0.461250703 6.46993093,0.207244467 C3.07041485,0.875739637 0.60973355,3.8802133 0.590909091,7.38548666 C0.590909091,15.3465927 14.5765749,26 14.5765749,26 C14.5765749,26 28.5909091,14.4202094 28.5909091,7.38548666" id="Path"></path>
                        </g>
                    </g>
                </g>
            </g>
        </g>
    </g>
</svg>