<?xml version="1.0" encoding="utf-8"?>
<!-- Generator: Adobe Illustrator 16.0.0, SVG Export Plug-In . SVG Version: 6.00 Build 0)  -->
<!DOCTYPE svg PUBLIC "-//W3C//DTD SVG 1.1//EN" "http://www.w3.org/Graphics/SVG/1.1/DTD/svg11.dtd">
<svg version="1.1" xmlns="http://www.w3.org/2000/svg" xmlns:xlink="http://www.w3.org/1999/xlink" x="0px" y="0px"
	 width="37.003px" height="38.433px" viewBox="0 0 37.003 38.433" enable-background="new 0 0 37.003 38.433" xml:space="preserve">
<g id="Layer_1">
</g>
<g id="Layer_2">
	<g>
		<circle fill="#A1D6D6" cx="17.471" cy="20.399" r="16.381"/>
		<g>
			<path fill="#3A528D" d="M32.315,10.121c-2.495-5.25-7.909-8.614-13.987-8.614c-6.314,0-11.631,3.271-14.069,8.579H4.122
				c-1.822,0-3.304,1.482-3.304,3.304v7.117c0,1.822,1.481,3.304,3.304,3.304h0.111c1.68,3.71,4.784,6.437,8.847,7.763
				c-0.001,0.018-0.008,0.033-0.008,0.051c0,1.389,1.715,2.478,3.904,2.478s3.904-1.088,3.904-2.478s-1.715-2.478-3.904-2.478
				c-1.52,0-2.795,0.531-3.443,1.316c-3.657-1.172-6.475-3.568-8.059-6.829c1.324-0.431,2.289-1.663,2.289-3.128V13.39
				c0-1.459-0.957-2.687-2.272-3.123c2.305-4.689,7.129-7.56,12.837-7.56c5.424,0,10.275,2.888,12.668,7.442
				c-1.52,0.297-2.67,1.635-2.67,3.24v7.117c0,1.822,1.481,3.304,3.304,3.304h0.338c1.822,0,3.304-1.482,3.304-3.304V13.39
				C35.271,11.688,33.973,10.297,32.315,10.121z M16.977,30.348c1.548,0,2.705,0.674,2.705,1.277s-1.157,1.277-2.705,1.277
				s-2.705-0.674-2.705-1.277S15.429,30.348,16.977,30.348z M6.564,13.39v7.117c0,1.16-0.944,2.104-2.104,2.104H4.122
				c-1.16,0-2.104-0.944-2.104-2.104V13.39c0-1.16,0.944-2.104,2.104-2.104H4.46C5.62,11.286,6.564,12.23,6.564,13.39z
				 M34.072,20.507c0,1.16-0.944,2.104-2.104,2.104H31.63c-1.16,0-2.104-0.944-2.104-2.104V13.39c0-1.16,0.944-2.104,2.104-2.104
				h0.338c1.16,0,2.104,0.944,2.104,2.104V20.507z"/>
			<path fill="#3A528D" d="M10.429,18.956c-0.14,0.181-0.164,0.426-0.063,0.631c0.102,0.205,0.31,0.334,0.538,0.334
				c0.001,0,0.001,0,0.002,0l2.519-0.009c0.331-0.001,0.6-0.271,0.598-0.602c-0.001-0.332-0.273-0.579-0.602-0.598l-1.305,0.005
				c0.775-1.033,1.617-2.2,1.732-2.542c0.153-0.454,0.107-1.193-0.276-1.727c-0.306-0.424-0.78-0.657-1.339-0.657
				c-0.002,0-0.005,0-0.007,0c-0.718,0.002-1.146,0.295-1.377,0.54c-0.522,0.552-0.501,1.295-0.497,1.378
				c0.018,0.328,0.308,0.587,0.622,0.564c0.328-0.012,0.585-0.291,0.577-0.619c-0.002-0.088,0.024-0.35,0.173-0.502
				c0.103-0.106,0.273-0.161,0.506-0.161c0.221-0.042,0.311,0.08,0.368,0.158c0.148,0.206,0.146,0.543,0.119,0.625
				C12.593,16.061,11.432,17.648,10.429,18.956z"/>
			<path fill="#3A528D" d="M18.063,18.091c-0.001-0.331-0.27-0.598-0.6-0.598c-0.001,0-0.001,0-0.002,0l-0.081,0l-0.012-3.121
				c-0.001-0.269-0.18-0.504-0.438-0.576c-0.258-0.069-0.534,0.037-0.673,0.266l-2.276,3.729c-0.113,0.186-0.118,0.417-0.011,0.607
				c0.106,0.189,0.306,0.306,0.522,0.306c0.001,0,0.001,0,0.002,0l1.689-0.006l0.003,0.604c0.001,0.331,0.27,0.598,0.6,0.598
				c0.001,0,0.001,0,0.002,0c0.332-0.001,0.6-0.271,0.598-0.602l-0.002-0.605h0.081C17.797,18.692,18.065,18.422,18.063,18.091z
				 M15.564,17.5l0.612-1.003l0.004,1.001L15.564,17.5z"/>
			<path fill="#3A528D" d="M21.029,13.561c-0.311-0.102-0.653,0.067-0.757,0.382l-1.778,5.393c-0.104,0.315,0.066,0.654,0.382,0.758
				c0.062,0.021,0.125,0.03,0.188,0.03c0.252,0,0.486-0.16,0.569-0.412l1.778-5.393C21.516,14.004,21.345,13.665,21.029,13.561z"/>
			<path fill="#3A528D" d="M25.227,13.744l-2.525,0.009c-0.331,0.001-0.6,0.271-0.598,0.602c0.001,0.331,0.253,0.569,0.602,0.598
				l1.602-0.006l-1.802,4.088c-0.134,0.303,0.004,0.658,0.307,0.791c0.079,0.035,0.161,0.051,0.242,0.051
				c0.23,0,0.45-0.134,0.549-0.358l2.175-4.933c0.082-0.186,0.064-0.401-0.047-0.571C25.619,13.845,25.394,13.745,25.227,13.744z"/>
		</g>
	</g>
</g>
</svg>
