<?xml version="1.0" encoding="UTF-8"?>
<svg width="524px" height="27px" viewBox="0 0 524 27" version="1.1" xmlns="http://www.w3.org/2000/svg" xmlns:xlink="http://www.w3.org/1999/xlink">
    <title>Shape</title>
    <g id="Page-1" stroke="none" stroke-width="1" fill="none" fill-rule="evenodd">
        <g id="Baby" transform="translate(-200.000000, -2265.000000)" fill="#EFB261" fill-rule="nonzero">
            <g id="best-seller" transform="translate(194.000000, 2258.000000)">
                <g id="doodle" transform="translate(6.000000, 7.000000)">
                    <path d="M81.3448092,8.97575617 C90.7295818,2.66411416 102.027642,2.79460512 111.451067,8.34733915 C113.642651,7.50944978 115.845831,6.70933412 118.021954,5.83710503 C122.142286,4.17506219 126.498398,3.77672134 130.982062,3.95185396 C132.711932,3.96016888 134.388674,4.48372756 135.744022,5.43876418 C137.730749,6.89476865 139.732937,8.33360326 141.928386,9.92696664 C142.647319,9.51145593 143.640682,8.96202028 144.599258,8.37137696 C147.752451,6.4315715 151.513893,5.42459541 155.348456,5.49370775 C155.649944,5.49370775 155.951432,5.51431158 156.249054,5.49370775 C162.282675,5.06789512 167.071692,7.11454291 170.936919,10.9502905 C171.043436,11.0343282 171.161646,11.1058808 171.288655,11.1631968 C180.383535,7.08707113 188.898632,7.10424099 196.509265,13.790186 C197.730677,13.0484479 198.901841,12.2620681 200.154174,11.5890095 C202.95937,10.054975 206.086703,9.04432668 209.345686,8.618623 C212.750951,8.17907448 215.916572,8.72507616 218.757515,10.4420626 C220.771298,11.6611229 222.758025,12.914523 224.988261,14.298414 C226.781727,12.8321076 229.626535,12.1659169 231.07213,9.98877815 C231.273497,9.71834166 231.57178,9.51626202 231.918615,9.41530469 C235.010797,8.60832108 238.03727,7.55409143 241.195161,7.11797688 C246.018965,6.44835219 250.471707,7.46137417 253.846051,10.7167804 C254.76984,11.6096133 255.318702,12.7771641 256.126535,13.9515828 C265.994461,8.113829 275.336716,8.59458519 284.369753,15.8643056 C284.958605,15.5100124 285.519117,15.1198945 286.047261,14.6967549 C288.254924,12.8033467 290.939747,11.4058564 293.878213,10.6206291 C299.308857,9.08220933 305.087372,10.3081376 308.879161,15.0195483 C309.087883,15.2770963 309.265684,15.5415122 309.63288,15.9844947 C311.476594,14.7963401 313.339633,13.7421104 314.993951,12.4887104 C317.131422,10.8713092 319.678607,10.2737979 322.361075,9.86172116 C327.772393,9.03756768 331.668543,11.5512358 335.761819,14.174791 C336.639225,13.4261849 337.582341,12.5470879 338.614356,11.7538402 C340.79048,10.0849294 342.900894,8.24088599 346.112898,8.20654626 C350.005182,8.16877256 353.738992,8.70790629 356.970322,10.76829 C358.164678,11.5306319 359.343572,12.3170117 360.449027,13.034712 C362.640611,11.6405191 364.816734,10.3974209 366.795731,8.96202028 C370.564328,6.21484204 378.665845,6.38997465 382.105897,8.64266081 C383.992128,9.87889102 385.727615,11.2902538 387.752995,12.784032 C389.426638,11.8499914 391.316734,10.7236483 393.276405,9.71406033 C395.72208,8.41469276 398.466257,7.62237158 401.304482,7.39612868 C404.7484,7.15231661 407.968135,8.17564051 410.878651,9.76556992 C412.389955,10.5897234 413.808494,11.5409339 415.435754,12.5402199 C415.822277,12.2586342 416.375005,11.9392747 416.838832,11.5581037 C418.929445,9.75658749 421.47959,8.4311484 424.271665,7.69488432 C426.320235,7.19695826 428.565933,7.25876977 430.726595,7.16261853 C434.236221,7.00465578 436.872307,8.45722628 439.133465,10.5965913 C439.883319,11.3039897 440.787782,11.898067 441.839124,12.7084846 C442.646383,12.2252956 443.420779,11.7001262 444.158261,11.1357251 C448.529833,7.42703444 453.848386,6.09121902 459.824028,6.72650398 C461.312141,6.88446673 462.750005,7.67084651 464.110565,8.32330134 C465.270134,8.88647288 466.302149,9.66941868 467.58927,10.4764023 C468.111076,10.133005 468.675399,9.74496608 469.255183,9.37066305 C470.573226,8.52247176 471.852616,7.62620486 473.220907,6.84325906 C477.086134,4.64551646 481.337885,4.86185675 485.616692,5.50744364 C486.261274,5.66076626 486.86813,5.91927744 487.406292,6.2697856 C489.481919,7.41673252 491.534355,8.59115122 493.590656,9.75870197 C494.904833,8.8212274 496.079863,7.82537528 497.455884,7.06646729 C498.57478,6.41255048 499.819454,5.94694939 501.12785,5.69287817 C503.844468,5.20463628 506.597228,4.89132987 509.36465,4.75540359 C513.975866,4.5905729 517.516415,6.68529631 520.678171,9.26420989 C521.788664,10.2117261 522.777738,11.2654996 523.627339,12.406295 C524.299889,13.2716562 524.013862,14.0065263 523.155782,14.3533576 C522.297701,14.7001888 521.42416,14.422037 521.037637,13.4605247 C519.707999,10.009382 516.519186,8.30956545 512.920659,7.02525962 C511.957295,6.65863444 510.91445,6.48623673 509.867129,6.52046562 C507.109172,6.69046358 504.363483,6.99194276 501.641925,7.42360046 C499.095448,7.84180126 496.865498,9.19456766 495.500078,11.149461 C496.246067,11.9976522 497.026843,12.8424096 497.745776,13.7249406 C498.905344,15.1225675 499.616546,16.6678553 499.508319,18.3985776 C499.477398,18.9239754 499.253214,19.6657135 498.812578,19.9163935 C496.961134,20.9706232 494.947351,21.6333799 492.666867,20.9156796 C490.908188,20.366244 489.338906,18.1066899 489.737024,16.3656657 C490.015722,15.3713057 490.432498,14.4115891 490.977762,13.5086003 C491.417038,12.8103004 491.905008,12.1370742 492.438818,11.4928582 C488.697278,8.70790629 484.83205,6.31099328 479.606263,6.72650398 C476.869682,6.94284427 474.446184,8.04514954 472.26233,9.42560661 C471.187797,10.1124012 470.291064,10.9914982 469.328623,11.77101 C469.367275,12.0216901 469.328623,12.2448983 469.432984,12.3891251 C471.230314,14.810076 470.592552,17.3134421 469.765393,19.8133743 C469.519343,20.7467171 468.612248,21.4255067 467.535157,21.4822851 C466.294419,21.5543986 464.887476,21.7638709 463.824538,21.372398 C461.582706,20.5482445 460.991327,18.2371808 462.375078,16.2866843 C463.457342,14.7585664 464.732867,13.3334677 466.047044,11.7091985 C464.153083,10.2394582 462.096782,8.88990685 459.44137,8.47783012 C454.060974,7.63650678 449.557983,9.22987016 445.638643,12.2998418 C444.815349,12.9488627 444.038439,13.6390912 443.238336,14.3121499 C443.736951,15.7475505 444.316735,17.0593282 444.629818,18.4329173 C444.85029,19.3655484 444.842381,20.3294007 444.606627,21.2590769 C444.440422,21.8703241 443.787199,22.6738737 443.149436,22.8455723 C440.934661,23.4465176 438.62712,23.8517264 436.412345,22.7391192 C435.229585,22.1416079 434.843062,21.4239076 435.531073,20.3353382 C436.621067,18.5874461 437.927514,16.9322712 439.164387,15.2530585 C439.482208,14.8656616 439.825524,14.4952915 440.192537,14.1438852 C438.446041,12.2588265 436.369669,10.6355794 434.04296,9.33632332 C433.725323,9.15644416 433.363148,9.04801025 432.987753,9.02039782 C428.998838,8.74224602 424.986732,8.5053019 421.508027,10.6858746 C419.892362,11.6988966 418.415845,12.8733153 416.89681,13.9550167 C417.886309,15.8024941 418.829424,17.3889895 419.60247,19.0441644 C420.584238,21.1457558 419.420804,22.9108178 416.823371,23.3160266 C415.716928,23.5031982 414.5872,23.5574825 413.464488,23.4774233 C411.002338,23.264517 409.827309,21.8256824 410.635142,19.8133743 C411.238117,18.3161622 412.262403,16.9425731 413.120483,15.5243423 C413.3711,15.1551161 413.644666,14.7985755 413.939911,14.4563768 C410.639007,10.3356094 404.064255,8.36794299 398.641341,9.66941868 C394.837957,10.5828554 391.823079,12.4921443 388.815932,14.6692831 C389.318412,15.4522289 389.735856,16.1184196 390.168762,16.7777424 C391.32833,18.5325025 391.204643,20.2117152 389.80543,21.5853043 C387.872817,23.4877252 385.348823,24.1882557 383.192026,23.4224798 C381.394695,22.7803269 380.745337,20.1773755 382.032458,18.5462384 C382.925325,17.4336312 383.965072,16.4068733 384.919783,15.3389078 L385.692828,14.4804146 C383.168357,10.0522152 377.550808,7.74440452 372.118149,8.90364274 C368.210404,9.69345649 365.133683,11.7298024 362.397102,14.4529428 C362.949829,15.060756 363.436848,15.5964557 363.943193,16.1321555 C366.36669,18.7763146 365.326944,22.9485915 361.875296,24.4114639 C359.169637,25.5618448 356.344155,24.1024064 356.409864,21.5337947 C356.460112,19.4493732 356.985783,17.461103 358.508683,15.7509845 C358.775383,15.4522289 358.984106,15.1156995 359.281728,14.7207927 C355.733449,11.5684056 351.551273,9.77587184 346.476229,9.91323075 C345.201779,9.9343301 343.961419,10.2825716 342.904759,10.9159508 C340.689984,12.402861 338.312869,13.8382617 337.257662,16.06691 C337.984324,17.4404991 338.618222,18.7385409 339.325558,19.9919409 C340.894841,22.7734589 337.427732,26.3241868 333.504526,25.8812043 C331.919782,25.6992037 330.651988,23.9341417 331.046241,22.4712693 C331.232359,21.8501966 331.491465,21.2482314 331.819286,20.6753015 C332.638715,19.1643535 333.49293,17.6671413 334.428315,15.9947966 C333.953054,15.4482228 333.425412,14.9392383 332.851302,14.4735466 C327.88835,10.9949322 321.533916,10.2737979 315.995045,14.1301494 C314.313671,15.3011341 312.593644,16.4377791 310.970249,17.5366504 C311.553898,19.2536368 312.172335,20.740547 312.554992,22.2824008 C312.703964,23.0363776 312.628003,23.811872 312.334674,24.531653 C311.774616,26.0937139 310.081706,27.1106011 308.241398,26.9903775 C306.107793,26.8804904 304.298866,25.7781851 303.912343,24.1607839 C303.556742,22.6773077 304.53078,21.4136057 305.357938,20.235753 C306.045949,19.2570708 307.019986,18.4226154 308.009485,17.3786876 C306.900164,15.4041533 305.303825,13.7455444 302.942171,12.780598 C299.498253,11.3692352 296.058201,11.3829711 292.629744,13.0141082 C290.447459,13.9917714 288.421091,15.2227515 286.603854,16.6747232 C285.784426,17.3615178 285.591165,17.9246893 285.915844,18.8587299 C286.244626,19.9073335 286.439119,20.9855597 286.495628,22.0729285 C286.588393,23.2198754 285.985418,24.153916 285.104146,25.0261451 C284.118513,25.9979594 283.047845,26.173092 281.695015,25.7129396 C280.342186,25.2527873 279.4068,24.3393505 279.341092,23.1889696 C279.299208,21.8841442 279.789236,20.6097881 280.720978,19.600468 C281.285301,18.9136735 281.880546,18.2577847 282.522174,17.4988767 C280.496795,15.1328694 278.196984,13.285392 274.737606,12.5848616 C271.486949,11.9255388 268.302002,11.4207448 264.962445,12.1247092 C262.209215,12.7371486 259.671633,13.9505416 257.57986,15.6548333 C256.806815,16.2695144 256.706319,16.9769128 256.911176,17.7564246 C257.421386,19.7069212 256.733376,21.4376435 255.624055,23.0893844 C254.317608,25.036447 250.599259,25.4588256 248.774872,23.8620283 C248.113918,23.2748189 247.719665,22.6429679 248.481115,21.8325504 C250.085184,20.1636396 251.54624,18.3917096 253.177366,16.7331007 C254.336934,15.5518141 254.379452,15.4865686 253.718498,14.0443 C251.758828,9.76556992 245.292302,8.0005079 240.882077,9.08907728 C239.444213,9.43247456 238.002483,9.80677759 236.568483,10.1742127 C236.276566,10.2357567 235.995616,10.332825 235.733594,10.4626664 C232.482938,12.2586342 229.240012,14.0786398 225.966164,15.8849095 C226.476374,17.0215545 226.947932,17.8869156 227.261015,18.7969184 C228.258244,21.6917575 227.241689,23.6834617 224.145642,25.0467489 C222.66526,25.6992037 220.755837,25.5034673 219.812722,24.4801434 C218.197057,22.7219493 218.100426,20.8366982 219.19042,19.8854878 C219.8707,19.2914105 220.477541,18.6286537 221.123034,17.9933688 C221.768527,17.3580838 222.371502,16.7331007 223.187065,15.9089473 C222.576359,15.3423418 221.99271,14.7104908 221.3047,14.1919609 C218.919854,12.3616534 216.295365,10.9434226 213.118148,10.3012697 C211.490887,9.95787239 209.967987,10.2016845 208.452818,10.510742 C204.313159,11.3486314 200.583215,12.8595794 197.869825,15.3972853 C198.368439,17.2481967 198.940493,18.8312581 199.211059,20.4692632 C199.597582,22.7391192 196.323734,25.9636196 193.641266,26.1593561 C192.01014,26.2726772 191.179116,25.8502985 190.440857,24.535087 C189.275428,22.4399722 189.752073,19.9171742 191.623617,18.2749545 C192.644037,17.3443479 193.656727,16.4103073 194.634629,15.5277763 C190.769402,9.53892771 178.014151,8.24088599 172.602832,13.2407504 C172.74198,13.5498079 172.884994,13.9069411 173.058929,14.2537724 C174.93743,18.0311425 172.440493,22.0969663 167.72878,23.0035351 C166.229072,23.2954228 165.278226,22.6120622 164.424011,21.7707388 C163.48476,20.8470002 162.87792,19.7103552 163.689617,18.5874461 C164.726307,17.2588655 165.86678,15.9966346 167.102613,14.810076 C167.80995,14.0820737 168.648704,13.4364868 169.42175,12.7496923 C168.880618,11.3486314 167.578036,10.5519497 166.329568,9.73809814 C164.149579,8.3026975 161.749273,7.33431717 158.904466,7.29997744 C155.286613,7.24159991 151.688086,7.23473196 148.317607,8.5808493 C146.348861,9.3414073 144.564941,10.4341484 143.064763,11.7984818 C143.412634,12.3444835 143.702526,12.787466 143.984687,13.2373164 C145.349113,15.3938513 144.262984,17.2894043 142.859906,18.968617 C141.534133,20.5585464 139.477832,21.0290007 137.216674,20.6031881 C135.550761,20.2975645 135.133316,19.851148 134.967111,18.3848417 C134.700411,16.0188344 136.12668,14.3430557 137.962663,12.8252397 C138.550177,12.3376155 139.184075,11.8911991 139.941659,11.3142917 C139.563325,10.8340165 139.151517,10.3752561 138.708652,9.94070253 C138.136598,9.43590853 137.417666,9.0478696 136.868803,8.52247176 C133.811408,5.59672693 129.934585,5.38382062 125.721487,5.81650119 C121.295801,6.2697856 117.434439,7.77386569 113.893891,9.73809814 C114.400235,11.2112725 114.914311,12.5264841 115.300833,13.8588655 C115.927,16.0188344 113.36822,18.8346921 110.349477,19.2021272 C107.806157,19.5111847 105.378794,16.7983462 106.430136,14.7963401 C107.303678,13.1205613 108.436189,11.5409339 109.495262,9.84798527 C104.965215,5.30483924 89.8135228,3.87287258 82.937283,10.641233 C83.3238057,11.5100281 83.7451155,12.3856912 84.0504685,13.2991279 C85.2100368,16.7571386 82.3536336,20.7783207 78.233301,21.5715684 C76.3006872,21.9458715 74.9981055,21.2281711 74.6579655,19.5111847 C74.2714427,17.4748389 75.0754101,15.7063429 76.4475659,14.1198474 C77.4679859,12.9385608 78.623689,11.8431235 79.7909877,10.637799 C76.5867141,7.12484483 72.8142519,4.54936523 67.4222595,4.27121343 C66.4503893,4.22284707 65.4770439,4.3393897 64.5542606,4.61461071 C61.1373995,5.64480255 58.1959613,7.36178895 55.2777145,9.49772004 C56.6150832,11.0601777 56.8238055,12.7290884 56.6034875,14.5078864 C56.4236658,16.4866939 55.2085876,18.2757024 53.3219093,19.3394861 C51.5377079,20.3796584 49.2806825,20.542662 47.3308066,19.7721667 C45.4484407,19.0407305 44.7990825,16.8704597 46.0591467,15.0950957 C47.1295373,13.704844 48.3489062,12.4099197 49.7001911,11.2284423 C50.395932,10.5725535 51.3429128,10.1124012 52.1893976,9.55609758 C48.7879974,5.77872749 44.7720259,3.64279641 39.8206694,3.61532462 C33.9107364,3.58441887 28.4646308,5.19838609 23.8263577,8.83152931 C24.3481634,9.71062635 24.8467778,10.6171952 25.4072358,11.4928582 C26.7484697,13.6013175 26.361947,16.8155161 24.4177375,18.4947288 C23.8749163,18.9322376 23.1904254,19.2062522 22.4619324,19.2776746 C21.4188095,19.3453356 20.37016,19.2747386 19.3504242,19.0682022 C16.9578483,18.6114839 16.0920373,16.9734788 16.664091,14.8753215 C17.3018535,12.533352 18.7397182,10.637799 20.5641056,8.82809534 C18.5580525,5.62763269 15.4194877,3.72521175 11.4808208,2.68471799 C10.8353278,2.51301935 10.1705087,2.3928303 9.54820703,2.2039618 C6.84254773,1.39697819 4.74372916,2.27607523 2.90774606,3.94155204 C1.8757303,4.86185675 1.78683007,5.87144476 2.3240967,6.97031605 C2.55987558,7.43733636 3.00437675,7.85284707 3.13192926,8.34390518 C3.22469472,8.68730246 3.08941176,9.31228551 2.80725015,9.45994634 C2.35375378,9.61870639 1.84114711,9.56724722 1.43895959,9.32258743 C0.000957228394,8.0005079 -0.420214877,4.99921566 0.453326555,3.71490983 C2.49416671,0.710183629 5.58634877,-0.536348499 9.57912885,0.212257573 C14.2174019,1.08448667 18.4691523,2.57826484 21.267577,6.12555874 C21.5895446,6.45621759 21.9526109,6.75343166 22.3498408,7.01152373 C24.2167457,6.08435107 25.9792894,5.15031047 27.8345987,4.30898713 C30.6177773,3.04096108 33.6512473,2.26429246 36.7671396,2.02196124 C39.40709,1.82622479 41.9272184,1.84682863 44.5207861,2.54735908 C47.391255,3.26492576 50.0012473,4.63560277 52.0927669,6.52389959 C52.5488638,6.94284427 53.0784,7.30341142 53.723893,7.80820542 C54.8834612,7.19009031 56.0430295,6.63035275 57.1252932,5.97102997 C59.5874432,4.46694988 62.1500891,3.12426651 65.1572361,2.64694429 C66.4744912,2.45812115 67.8173002,2.45812115 69.1345553,2.64694429 C73.305028,3.17396532 77.1294231,4.99937515 79.9262707,7.7979035 C80.3591762,8.24088599 80.8771167,8.58428327 81.3448092,8.97575617 Z M53.4455966,10.7270823 C52.5334029,11.4619525 51.7642226,11.9839164 51.12646,12.6123334 C49.929231,13.7299643 48.8283962,14.9260768 47.8332861,16.190533 C46.8901706,17.4817068 47.8603427,18.724805 49.5880995,18.594314 C51.5709612,18.4329173 53.1827611,17.708349 53.9132891,16.0085325 C54.6786042,14.2331685 55.1656229,12.4646725 53.4455966,10.7270823 Z M22.1372532,10.4592324 C20.3167311,11.6199152 19.5436855,13.1549011 18.8015618,14.683019 C18.2720257,15.7681544 18.7203921,17.0558942 19.5977987,17.3992915 C21.1941377,18.0242745 22.6899808,17.6843112 23.4630263,16.4206092 C24.1587673,15.2393226 24.3945461,13.9824885 23.6369615,12.7359564 C23.1963256,12.0182561 22.6899808,11.2971218 22.1372532,10.4592324 L22.1372532,10.4592324 Z M493.896009,12.8080698 C493.509486,13.415883 493.200268,13.7833181 492.991546,14.1816589 C492.547045,15.0435861 492.002047,15.8986453 491.762403,16.8052142 C491.484107,17.8594438 492.087082,18.721371 493.119098,19.1883913 C494.402354,19.7756006 495.631496,19.480279 496.698299,18.844994 C497.765102,18.209709 497.471344,17.2928383 497.057765,16.4206092 C496.39285,14.9835872 495.299784,13.7346786 493.896009,12.8080698 L493.896009,12.8080698 Z M195.550688,17.1486114 C194.464559,18.2818225 193.366835,19.3841277 192.330954,20.5276407 C191.523121,21.4204736 191.650674,22.4815712 191.944431,23.4705554 C192.253649,24.5007472 193.103999,24.7651631 194.182398,24.3084447 C197.332558,23.0069691 198.059221,19.5523924 195.550688,17.1486114 Z M81.1360869,12.3616534 C79.2537211,13.8416956 77.553021,15.4075872 76.7567841,17.5538202 C76.432105,18.4329173 76.2543045,19.2879765 77.1703634,20.0022429 C81.8859411,18.8209562 83.6059673,14.8650195 81.1360869,12.3616534 Z M170.662488,14.3533576 C169.746429,15.0676239 169.027497,15.5415122 168.428386,16.1081177 C167.469377,17.0058001 166.566151,17.9492525 165.722727,18.9342773 C165.181595,19.5798642 165.405778,20.2597908 165.997158,20.871038 C166.588538,21.4822851 167.29974,21.3586621 168.034133,21.118284 C170.241178,20.4074516 172.030779,17.7392548 171.512838,15.7956262 C171.393016,15.3217379 170.983302,14.8890573 170.662488,14.3670935 L170.662488,14.3533576 Z M360.831685,15.9295511 C359.258537,17.6774433 358.269039,19.4425053 358.400456,21.5131909 C358.435243,22.0591926 358.887475,22.8421384 359.397685,23.0344408 C360.080235,23.1903601 360.805584,23.0530872 361.357356,22.6635718 C362.080508,22.0522931 362.596088,21.2730047 362.845468,20.4143196 C363.228126,18.7454088 362.563307,17.2722345 360.816224,15.943287 L360.831685,15.9295511 Z M467.682036,13.4776945 L467.094521,13.415883 C466.035449,14.7894721 464.883611,16.0806459 463.952091,17.4954427 C463.148124,18.714503 463.530781,19.6519776 464.725136,20.0297146 C466.019988,20.4486593 467.600866,19.8717519 467.956467,18.717937 C468.282056,17.741404 468.447351,16.7282509 468.447351,15.7097768 C468.397103,14.9749067 467.933275,14.2366025 467.666575,13.4914304 L467.682036,13.4776945 Z M141.263567,12.8767493 C139.539676,14.0202622 138.090215,15.1397374 137.220539,16.7262328 C137.053703,17.0080843 136.933915,17.3100025 136.864938,17.6224997 C136.679407,18.6904652 137.251461,19.1815234 138.484468,19.0785042 C141.653955,18.8106543 143.200046,15.7544185 141.263567,12.8767493 Z M415.342989,15.6513993 C414.252995,17.2241589 413.24417,18.4157474 412.567756,19.734393 C411.79471,21.245341 412.610273,22.0557586 414.585404,21.9458715 C415.034785,21.9249446 415.4818,21.8744412 415.922773,21.7947767 C417.468864,21.5097569 418.106627,20.6581317 417.530708,19.3909957 C416.997306,18.216577 416.220396,17.1280076 415.342989,15.6513993 Z M111.485854,11.0704796 C110.797843,11.8293876 110.090507,12.5402199 109.491396,13.3059959 C109.017162,13.8688815 108.643028,14.4931264 108.382076,15.1569072 C108.032217,15.9812392 108.44137,16.907057 109.329057,17.2997063 C110.191003,17.711783 110.898339,17.3237441 111.547697,16.8532898 C113.669707,15.31487 113.723821,13.0759197 111.485854,11.0704796 Z M386.945162,15.9673248 C385.785594,17.2172909 384.807691,18.1719353 383.976667,19.2124291 C383.658442,19.703595 383.473183,20.2537937 383.435535,20.8195284 C383.300252,21.7020594 383.864576,22.0763624 384.8734,22.1107022 C387.231189,22.1862496 389.306816,19.6210719 388.286396,17.8285381 C387.977178,17.2688005 387.528811,16.7640065 386.945162,15.9673248 Z M224.37369,17.5126126 C222.920365,18.9583151 221.807179,20.0400166 220.732646,21.1457558 C219.928679,21.9733432 220.427293,22.7013455 221.072786,23.3847061 C221.718279,24.0680667 222.510651,23.8723302 223.291427,23.5392348 C224.949609,22.8524403 225.935242,21.4307755 225.552585,20.1396018 C225.347728,19.3978636 224.926418,18.714503 224.37369,17.5126126 Z M309.451214,19.0372965 C307.630692,20.5516785 306.428606,21.7226632 306.057545,23.3812721 C305.864283,24.2466332 306.177367,24.9265599 307.08956,25.2974289 C308.001754,25.668298 309.064692,25.6408262 309.725646,24.8819182 C310.177956,24.3990588 310.430333,23.793062 310.440713,23.1649318 C310.301564,21.9046638 309.876389,20.6959054 309.451214,19.0201266 L309.451214,19.0372965 Z M441.522175,15.8952114 C439.164387,17.8628778 437.811557,19.8957897 437.656948,21.7329651 C438.700559,21.7329651 439.72871,21.8016446 440.74913,21.7329651 C442.244973,21.6093421 443.014153,20.7611508 442.728126,19.4699771 C442.44983,18.3230301 441.986003,17.2447627 441.522175,15.8780415 L441.522175,15.8952114 Z M335.839123,17.7941983 C334.957851,19.1334477 334.273706,20.0503185 333.736439,21.0255667 C333.389875,21.6596521 333.16019,22.3390737 333.056159,23.0378748 C332.905415,24.0371609 333.539313,24.4698415 334.664094,24.2672371 C336.847947,23.8791981 337.968863,22.1725137 337.191953,20.3284703 C336.871139,19.5729963 336.415042,18.8621639 335.839123,17.7941983 Z M254.785301,17.9452931 C252.984105,19.5901661 251.306596,20.9294155 250.34802,22.8558743 C251.782019,23.4499515 252.926126,23.1580639 253.563889,22.3510803 C254.495409,21.1732276 255.245263,19.8408461 254.785301,17.9452931 L254.785301,17.9452931 Z M283.712664,19.4356373 C282.549279,20.1189964 281.686557,21.1377163 281.26984,22.3201745 C280.9297,23.2164414 281.335549,23.9410097 282.185899,24.2328973 C283.31068,24.6140683 283.662416,23.8482924 283.998691,23.2439132 C284.686701,22.0282868 284.508901,20.7954906 283.712664,19.4356373 Z" id="Shape"></path>
                </g>
            </g>
        </g>
    </g>
</svg>