<svg width="524" height="27" xmlns="http://www.w3.org/2000/svg"><path d="M81.345 8.976c9.385-6.312 20.683-6.181 30.106-.629 2.192-.838 4.395-1.638 6.571-2.51 4.12-1.662 8.476-2.06 12.96-1.885 1.73.008 3.407.532 4.762 1.487 1.987 1.456 3.989 2.895 6.184 4.488.72-.416 1.713-.965 2.671-1.556 3.153-1.94 6.915-2.946 10.75-2.877.3 0 .602.02.9 0 6.034-.426 10.823 1.62 14.688 5.456.106.084.225.156.352.213 9.095-4.076 17.61-4.059 25.22 2.627 1.222-.742 2.393-1.528 3.645-2.201 2.805-1.534 5.933-2.545 9.192-2.97 3.405-.44 6.57.106 9.412 1.823 2.013 1.22 4 2.473 6.23 3.856 1.794-1.466 4.639-2.132 6.084-4.31.201-.27.5-.472.847-.573 3.092-.807 6.118-1.86 9.276-2.297 4.824-.67 9.277.343 12.651 3.599.924.893 1.473 2.06 2.28 3.235 9.868-5.838 19.21-5.357 28.244 1.912.589-.354 1.15-.744 1.677-1.167 2.208-1.894 4.893-3.291 7.831-4.076 5.43-1.539 11.21-.313 15.001 4.399.209.257.387.522.754.964 1.844-1.188 3.707-2.242 5.361-3.495 2.137-1.618 4.685-2.215 7.367-2.627 5.411-.824 9.308 1.69 13.4 4.313.878-.749 1.821-1.628 2.853-2.421 2.176-1.67 4.287-3.513 7.499-3.547 3.892-.038 7.626.5 10.857 2.561 1.195.763 2.374 1.549 3.479 2.267 2.192-1.394 4.368-2.638 6.347-4.073 3.768-2.747 11.87-2.572 15.31-.32 1.886 1.237 3.622 2.648 5.647 4.142 1.674-.934 3.564-2.06 5.523-3.07a20.63 20.63 0 0 1 8.028-2.318c3.444-.244 6.664.78 9.575 2.37 1.511.824 2.93 1.775 4.557 2.774.386-.281.939-.6 1.403-.982 2.09-1.801 4.64-3.127 7.433-3.863 2.048-.498 4.294-.436 6.455-.532 3.51-.158 6.145 1.294 8.406 3.434.75.707 1.655 1.301 2.706 2.111a24.624 24.624 0 0 0 2.32-1.572c4.37-3.709 9.69-5.045 15.665-4.41 1.488.158 2.926.945 4.287 1.597 1.16.563 2.191 1.346 3.478 2.153.522-.343 1.086-.731 1.666-1.105 1.318-.849 2.598-1.745 3.966-2.528 3.865-2.197 8.117-1.981 12.396-1.336a5.694 5.694 0 0 1 1.79.763c2.075 1.147 4.127 2.321 6.184 3.489 1.314-.938 2.489-1.934 3.865-2.693a11.702 11.702 0 0 1 3.672-1.373 64.45 64.45 0 0 1 8.237-.938c4.61-.164 8.151 1.93 11.313 4.51 1.11.947 2.1 2 2.95 3.141.672.866.386 1.6-.472 1.947s-1.732.069-2.118-.892c-1.33-3.452-4.519-5.151-8.117-6.436a7.88 7.88 0 0 0-3.054-.505c-2.758.17-5.504.472-8.225.904-2.547.418-4.777 1.77-6.142 3.725.746.849 1.527 1.693 2.246 2.576 1.16 1.398 1.87 2.943 1.762 4.674-.03.525-.255 1.267-.695 1.517-1.852 1.055-3.866 1.717-6.146 1-1.759-.55-3.328-2.81-2.93-4.55.279-.995.695-1.954 1.24-2.857a19.1 19.1 0 0 1 1.462-2.016c-3.742-2.785-7.607-5.182-12.833-4.766-2.736.216-5.16 1.318-7.344 2.699-1.074.686-1.97 1.565-2.933 2.345.038.25 0 .474.104.618 1.797 2.421 1.16 4.924.332 7.424-.246.934-1.153 1.613-2.23 1.67-1.24.071-2.648.28-3.71-.11-2.242-.825-2.834-3.136-1.45-5.086 1.082-1.528 2.358-2.954 3.672-4.578-1.894-1.47-3.95-2.82-6.606-3.231-5.38-.841-9.883.752-13.802 3.822-.824.649-1.6 1.34-2.4 2.012.498 1.436 1.078 2.747 1.39 4.12.221.934.213 1.897-.022 2.827-.167.611-.82 1.415-1.458 1.587-2.214.6-4.522 1.006-6.737-.107-1.182-.597-1.569-1.315-.88-2.404 1.09-1.748 2.396-3.403 3.632-5.082.318-.387.662-.758 1.029-1.11a24.954 24.954 0 0 0-6.15-4.807 2.52 2.52 0 0 0-1.055-.316c-3.99-.278-8.001-.515-11.48 1.666-1.616 1.013-3.092 2.187-4.611 3.269.99 1.847 1.932 3.434 2.705 5.09.982 2.1-.181 3.866-2.779 4.271a14.13 14.13 0 0 1-3.359.161c-2.462-.212-3.637-1.651-2.829-3.664.603-1.497 1.627-2.87 2.485-4.289.251-.369.525-.725.82-1.068-3.301-4.12-9.876-6.088-15.299-4.787-3.803.914-6.818 2.823-9.825 5 .502.783.92 1.45 1.353 2.109 1.16 1.755 1.036 3.434-.364 4.807-1.932 1.903-4.456 2.603-6.613 1.837-1.797-.642-2.447-3.245-1.16-4.876.893-1.112 1.933-2.14 2.888-3.207l.773-.859c-2.525-4.428-8.142-6.736-13.575-5.576-3.908.79-6.984 2.826-9.72 5.549.552.608 1.039 1.143 1.545 1.68 2.424 2.643 1.384 6.816-2.068 8.278-2.705 1.15-5.53-.309-5.465-2.877.05-2.085.576-4.073 2.099-5.783.266-.299.475-.635.773-1.03-3.549-3.153-7.73-4.945-12.806-4.808a7.196 7.196 0 0 0-3.571 1.003c-2.215 1.487-4.592 2.922-5.647 5.15.726 1.374 1.36 2.673 2.068 3.926 1.569 2.781-1.898 6.332-5.821 5.89-1.585-.183-2.853-1.948-2.459-3.41a8.57 8.57 0 0 1 .773-1.797c.82-1.51 1.674-3.008 2.61-4.68a12.64 12.64 0 0 0-1.578-1.521c-4.963-3.48-11.317-4.2-16.856-.344-1.681 1.171-3.401 2.308-5.025 3.407.584 1.717 1.202 3.204 1.585 4.745.149.754.073 1.53-.22 2.25-.56 1.562-2.253 2.579-4.094 2.458-2.133-.11-3.942-1.212-4.329-2.83-.355-1.483.619-2.746 1.446-3.924.688-.979 1.662-1.813 2.651-2.857-1.109-1.975-2.705-3.633-5.067-4.598-3.444-1.412-6.884-1.398-10.312.233a27.964 27.964 0 0 0-6.026 3.66c-.82.688-1.013 1.25-.688 2.185a12.99 12.99 0 0 1 .58 3.214c.092 1.147-.51 2.08-1.392 2.953-.985.972-2.056 1.147-3.409.687-1.353-.46-2.288-1.374-2.354-2.524-.042-1.305.448-2.58 1.38-3.589.564-.686 1.16-1.342 1.801-2.101-2.025-2.366-4.325-4.214-7.784-4.914-3.251-.66-6.436-1.164-9.776-.46-2.753.612-5.29 1.826-7.382 3.53-.773.615-.874 1.322-.669 2.101.51 1.95-.178 3.682-1.287 5.333-1.306 1.947-5.025 2.37-6.85.773-.66-.587-1.054-1.219-.293-2.03 1.604-1.668 3.065-3.44 4.696-5.099 1.16-1.181 1.202-1.246.541-2.689-1.96-4.278-8.426-6.043-12.836-4.955-1.438.343-2.88.718-4.314 1.085a3.514 3.514 0 0 0-.834.289c-3.251 1.796-6.494 3.616-9.768 5.422.51 1.137.982 2.002 1.295 2.912.997 2.895-.02 4.886-3.115 6.25-1.48.652-3.39.456-4.333-.567-1.616-1.758-1.713-3.643-.623-4.595.68-.594 1.288-1.256 1.933-1.892.646-.635 1.249-1.26 2.064-2.084-.61-.567-1.194-1.199-1.882-1.717-2.385-1.83-5.01-3.249-8.187-3.89-1.627-.344-3.15-.1-4.665.209-4.14.838-7.87 2.349-10.583 4.886.498 1.851 1.07 3.434 1.341 5.072.387 2.27-2.887 5.495-5.57 5.69-1.63.114-2.462-.309-3.2-1.624-1.166-2.095-.689-4.618 1.183-6.26 1.02-.93 2.033-1.865 3.01-2.747-3.865-5.99-16.62-7.287-22.031-2.287.139.309.282.666.456 1.013 1.878 3.777-.619 7.843-5.33 8.75-1.5.291-2.45-.392-3.305-1.233-.94-.924-1.546-2.06-.734-3.184a35.6 35.6 0 0 1 3.413-3.777c.707-.728 1.546-1.374 2.319-2.06-.541-1.401-1.844-2.198-3.092-3.012-2.18-1.435-4.58-2.404-7.426-2.438-3.617-.058-7.216-.065-10.586 1.28a16.792 16.792 0 0 0-5.253 3.218c.348.546.638.99.92 1.44 1.364 2.156.278 4.051-1.125 5.73-1.326 1.59-3.382 2.061-5.643 1.635-1.666-.305-2.084-.752-2.25-2.218-.267-2.366 1.16-4.042 2.996-5.56.587-.487 1.221-.934 1.979-1.51a14.47 14.47 0 0 0-1.233-1.374c-.572-.505-1.291-.893-1.84-1.419-3.058-2.925-6.934-3.138-11.148-2.705-4.425.453-8.287 1.957-11.827 3.921.506 1.473 1.02 2.788 1.407 4.12.626 2.16-1.933 4.977-4.952 5.344-2.543.31-4.97-2.404-3.919-4.406.874-1.675 2.006-3.255 3.065-4.948-4.53-4.543-19.681-5.975-26.558.793.387.869.808 1.745 1.113 2.658 1.16 3.458-1.696 7.48-5.817 8.273-1.932.374-3.235-.344-3.575-2.06-.387-2.037.417-3.806 1.79-5.392 1.02-1.181 2.176-2.277 3.343-3.482-3.204-3.513-6.977-6.089-12.369-6.367a8.563 8.563 0 0 0-2.868.344c-3.417 1.03-6.358 2.747-9.276 4.883 1.337 1.562 1.546 3.231 1.325 5.01-.18 1.979-1.394 3.768-3.281 4.831-1.784 1.04-4.041 1.204-5.991.433-1.883-.731-2.532-2.902-1.272-4.677a27.113 27.113 0 0 1 3.641-3.867c.696-.655 1.643-1.116 2.49-1.672-3.402-3.777-7.418-5.913-12.37-5.94-5.91-.032-11.355 1.582-15.994 5.216.522.879 1.02 1.785 1.581 2.66 1.341 2.11.955 5.324-.99 7.003a3.694 3.694 0 0 1-1.955.783 11.834 11.834 0 0 1-3.112-.21c-2.392-.457-3.258-2.095-2.686-4.193.638-2.342 2.076-4.237 3.9-6.047-2.006-3.2-5.145-5.103-9.083-6.143-.646-.172-1.31-.292-1.933-.481-2.705-.807-4.804.072-6.64 1.738-1.032.92-1.121 1.93-.584 3.028.236.467.68.883.808 1.374.093.343-.043.968-.325 1.116a1.627 1.627 0 0 1-1.368-.137C.001 8-.421 4.999.453 3.715 2.494.71 5.586-.536 9.58.212c4.638.872 8.89 2.366 11.689 5.914a6.3 6.3 0 0 0 1.082.886c1.867-.928 3.63-1.862 5.485-2.703a26.535 26.535 0 0 1 8.932-2.287c2.64-.196 5.16-.175 7.754.525 2.87.718 5.48 2.089 7.572 3.977.456.419.985.78 1.63 1.284 1.16-.618 2.32-1.178 3.402-1.837 2.462-1.504 5.025-2.847 8.032-3.324a14.034 14.034 0 0 1 3.978 0c4.17.527 7.994 2.352 10.791 5.15.433.444.951.787 1.419 1.179Zm-27.9 1.751c-.912.735-1.68 1.257-2.319 1.885a31.812 31.812 0 0 0-3.293 3.579c-.943 1.29.027 2.534 1.755 2.403 1.983-.161 3.595-.886 4.325-2.585.766-1.776 1.253-3.544-.467-5.282Zm-31.308-.268c-1.82 1.16-2.593 2.696-3.335 4.224-.53 1.085-.082 2.373.796 2.716 1.596.625 3.092.285 3.865-.978.696-1.182.932-2.439.174-3.685-.44-.718-.947-1.439-1.5-2.277Zm471.759 2.35c-.387.607-.696.974-.904 1.373-.445.862-.99 1.717-1.23 2.623-.278 1.054.325 1.916 1.357 2.383 1.283.588 2.512.292 3.58-.343 1.066-.635.772-1.552.359-2.424-.665-1.437-1.758-2.686-3.162-3.613Zm-298.345 4.34c-1.086 1.133-2.184 2.235-3.22 3.379-.808.892-.68 1.954-.387 2.943.31 1.03 1.16 1.294 2.238.837 3.15-1.301 3.877-4.756 1.369-7.16ZM81.136 12.362c-1.882 1.48-3.583 3.046-4.38 5.192-.324.879-.502 1.734.414 2.448 4.716-1.181 6.436-5.137 3.966-7.64Zm89.526 1.991c-.916.715-1.635 1.189-2.234 1.755a35.488 35.488 0 0 0-2.705 2.826c-.541.646-.317 1.326.274 1.937.592.611 1.303.488 2.037.247 2.207-.71 3.997-3.379 3.479-5.322-.12-.474-.53-.907-.85-1.429v-.014Zm190.17 1.577c-1.573 1.747-2.563 3.513-2.432 5.583.035.546.487 1.33.998 1.521a2.472 2.472 0 0 0 1.96-.37 4.66 4.66 0 0 0 1.487-2.25c.383-1.669-.282-3.142-2.029-4.47l.016-.014Zm106.85-2.452-.587-.062c-1.06 1.373-2.211 2.665-3.143 4.08-.804 1.219-.421 2.156.773 2.534 1.295.419 2.876-.158 3.231-1.312a9.5 9.5 0 0 0 .491-3.008c-.05-.735-.514-1.473-.78-2.219l.015-.013Zm-326.418-.601c-1.724 1.143-3.174 2.263-4.043 3.85a3.05 3.05 0 0 0-.356.895c-.186 1.068.386 1.56 1.62 1.457 3.169-.268 4.715-3.325 2.779-6.202Zm274.079 2.774c-1.09 1.573-2.099 2.765-2.775 4.083-.773 1.511.042 2.322 2.017 2.212.45-.021.897-.072 1.338-.151 1.546-.285 2.184-1.137 1.608-2.404-.534-1.174-1.31-2.263-2.188-3.74Zm-303.857-4.58c-.688.758-1.395 1.47-1.995 2.235a6.654 6.654 0 0 0-1.109 1.85c-.35.825.06 1.751.947 2.144.862.412 1.57.024 2.219-.447 2.122-1.538 2.176-3.777-.062-5.783Zm275.46 4.896c-1.16 1.25-2.138 2.205-2.97 3.245a3.363 3.363 0 0 0-.54 1.608c-.136.882.429 1.256 1.437 1.29 2.358.076 4.434-2.489 3.413-4.281-.309-.56-.757-1.065-1.34-1.862Zm-162.572 1.546c-1.454 1.445-2.567 2.527-3.641 3.633-.804.827-.306 1.555.34 2.239.645.683 1.438.487 2.218.154 1.659-.687 2.644-2.108 2.262-3.4-.205-.741-.627-1.424-1.18-2.626Zm85.077 1.524c-1.82 1.515-3.022 2.686-3.393 4.344-.194.866.12 1.546 1.032 1.916.912.371 1.975.344 2.636-.415a2.573 2.573 0 0 0 .715-1.717c-.14-1.26-.565-2.47-.99-4.145v.017Zm132.071-3.142c-2.358 1.968-3.71 4-3.865 5.838 1.044 0 2.072.069 3.092 0 1.496-.124 2.265-.972 1.98-2.263-.28-1.147-.743-2.225-1.207-3.592v.017Zm-105.683 1.9c-.881 1.338-1.565 2.255-2.103 3.23a6.051 6.051 0 0 0-.68 2.013c-.15 1 .483 1.432 1.608 1.23 2.184-.389 3.305-2.095 2.528-3.94-.32-.755-.777-1.466-1.353-2.534Zm-81.054.15c-1.8 1.645-3.478 2.984-4.437 4.91 1.434.595 2.578.303 3.216-.504.931-1.178 1.681-2.51 1.221-4.406Zm28.928 1.49c-1.164.684-2.026 1.703-2.443 2.885-.34.896.066 1.621.916 1.913 1.125.381 1.476-.385 1.813-.99.688-1.215.51-2.448-.286-3.807Z" fill="#EFB261" fill-rule="nonzero"/></svg>