<svg xmlns="http://www.w3.org/2000/svg" width="47.779" height="31.895" xml:space="preserve"><path d="M45.099 11.667H34.083V3.302c0-1.434-1.166-2.6-2.6-2.6H3.977a2.603 2.603 0 0 0-2.6 2.6v18.667c0 1.434 1.166 2.6 2.6 2.6h7.734v4.566a.6.6 0 0 0 1.023.424l4.99-4.991h3.981v2.33c0 1.196.973 2.169 2.168 2.169h9.846l3.049 2.679a.602.602 0 0 0 .643.095.6.6 0 0 0 .353-.546v-2.228h7.334a2.171 2.171 0 0 0 2.169-2.169V13.836a2.17 2.17 0 0 0-2.168-2.169zm.969 15.231a.971.971 0 0 1-.97.969h-7.934a.6.6 0 0 0-.6.6v1.502l-2.223-1.953a.603.603 0 0 0-.396-.149H23.874a.97.97 0 0 1-.969-.969v-2.33h8.578c1.434 0 2.6-1.167 2.6-2.6v-9.101h11.016c.534 0 .97.435.97.969v13.062zm-33.158.788v-3.718a.6.6 0 0 0-.6-.6H3.977c-.771 0-1.4-.628-1.4-1.4V3.302c0-.772.629-1.4 1.4-1.4h27.507c.771 0 1.4.628 1.4 1.4v18.666c0 .772-.629 1.4-1.4 1.4H17.477a.597.597 0 0 0-.424.176l-4.143 4.142z"/><path d="M25.85 12.619c0-4.294-3.493-7.788-7.787-7.788s-7.787 3.494-7.787 7.788 3.493 7.788 7.787 7.788 7.787-3.494 7.787-7.788zm-14.375 0c0-3.632 2.955-6.587 6.588-6.587s6.588 2.955 6.588 6.587-2.955 6.587-6.588 6.587-6.588-2.955-6.588-6.587z"/><path d="M20.304 14.272a.6.6 0 0 0-.849-.032c-.549.508-1.1.757-1.64.727-.814-.039-1.393-.677-1.398-.684a.601.601 0 0 0-.904.79c.036.042.901 1.02 2.227 1.091.053.003.104.004.157.004.824 0 1.622-.353 2.374-1.049a.6.6 0 0 0 .033-.847z"/><circle cx="15.552" cy="11.264" r=".731"/><circle cx="20.153" cy="11.264" r=".73"/></svg>