<?xml version="1.0" encoding="UTF-8"?>
<svg xmlns="http://www.w3.org/2000/svg" xmlns:xlink="http://www.w3.org/1999/xlink" width="100px" height="67px" viewBox="0 0 100 67" version="1.1">
<g id="surface1">
<path style=" stroke:none;fill-rule:nonzero;fill:rgb(0%,0%,0%);fill-opacity:1;" d="M 93.957031 24.429688 L 71.007812 24.429688 L 71.007812 6.914062 C 71.007812 3.910156 68.578125 1.46875 65.589844 1.46875 L 8.285156 1.46875 C 5.296875 1.472656 2.871094 3.910156 2.867188 6.914062 L 2.867188 45.996094 C 2.867188 49 5.296875 51.441406 8.285156 51.441406 L 24.398438 51.441406 L 24.398438 61 C 24.398438 61.507812 24.703125 61.964844 25.167969 62.160156 C 25.636719 62.351562 26.171875 62.246094 26.527344 61.890625 L 36.925781 51.4375 L 45.21875 51.4375 L 45.21875 56.316406 C 45.21875 58.820312 47.246094 60.859375 49.734375 60.859375 L 70.246094 60.859375 L 76.601562 66.46875 C 76.96875 66.792969 77.492188 66.871094 77.941406 66.667969 C 78.386719 66.464844 78.675781 66.015625 78.675781 65.523438 L 78.675781 60.859375 L 93.953125 60.859375 C 96.449219 60.855469 98.46875 58.824219 98.472656 56.316406 L 98.472656 28.96875 C 98.472656 26.460938 96.449219 24.429688 93.957031 24.429688 Z M 95.976562 56.316406 C 95.972656 57.4375 95.070312 58.34375 93.953125 58.347656 L 77.425781 58.347656 C 76.734375 58.347656 76.175781 58.910156 76.175781 59.601562 L 76.175781 62.746094 L 71.542969 58.660156 C 71.316406 58.457031 71.023438 58.347656 70.71875 58.347656 L 49.738281 58.347656 C 48.625 58.34375 47.71875 57.4375 47.71875 56.316406 L 47.71875 51.4375 L 65.589844 51.4375 C 68.578125 51.4375 71.007812 48.996094 71.007812 45.996094 L 71.007812 26.941406 L 93.957031 26.941406 C 95.070312 26.941406 95.976562 27.851562 95.976562 28.96875 Z M 26.894531 57.96875 L 26.894531 50.183594 C 26.894531 49.488281 26.335938 48.925781 25.644531 48.925781 L 8.285156 48.925781 C 6.679688 48.925781 5.367188 47.613281 5.367188 45.996094 L 5.367188 6.914062 C 5.367188 5.296875 6.679688 3.980469 8.285156 3.980469 L 65.589844 3.980469 C 67.199219 3.980469 68.507812 5.296875 68.507812 6.914062 L 68.507812 45.996094 C 68.507812 47.613281 67.199219 48.925781 65.589844 48.925781 L 36.410156 48.925781 C 36.078125 48.925781 35.761719 49.058594 35.527344 49.296875 Z M 26.894531 57.96875 "/>
<path style=" stroke:none;fill-rule:nonzero;fill:rgb(0%,0%,0%);fill-opacity:1;" d="M 53.855469 26.421875 C 53.855469 17.429688 46.578125 10.113281 37.632812 10.113281 C 28.683594 10.113281 21.410156 17.429688 21.410156 26.421875 C 21.410156 35.410156 28.683594 42.726562 37.632812 42.726562 C 46.578125 42.726562 53.855469 35.410156 53.855469 26.421875 Z M 23.90625 26.421875 C 23.90625 18.816406 30.0625 12.628906 37.632812 12.628906 C 45.199219 12.628906 51.355469 18.816406 51.355469 26.421875 C 51.355469 34.027344 45.199219 40.210938 37.632812 40.210938 C 30.0625 40.210938 23.90625 34.027344 23.90625 26.421875 Z M 23.90625 26.421875 "/>
<path style=" stroke:none;fill-rule:nonzero;fill:rgb(0%,0%,0%);fill-opacity:1;" d="M 42.300781 29.882812 C 42.074219 29.636719 41.761719 29.492188 41.429688 29.480469 C 41.097656 29.46875 40.773438 29.585938 40.53125 29.816406 C 39.386719 30.878906 38.238281 31.398438 37.113281 31.335938 C 35.417969 31.253906 34.210938 29.917969 34.203125 29.90625 C 33.738281 29.421875 32.980469 29.390625 32.476562 29.832031 C 31.972656 30.273438 31.90625 31.03125 32.320312 31.558594 C 32.394531 31.648438 34.195312 33.695312 36.957031 33.84375 C 37.070312 33.851562 37.175781 33.851562 37.285156 33.851562 C 39.003906 33.851562 40.664062 33.113281 42.230469 31.65625 C 42.738281 31.183594 42.765625 30.390625 42.300781 29.882812 Z M 42.300781 29.882812 "/>
<path style=" stroke:none;fill-rule:nonzero;fill:rgb(0%,0%,0%);fill-opacity:1;" d="M 33.921875 23.585938 C 33.921875 24.429688 33.242188 25.113281 32.398438 25.113281 C 31.558594 25.113281 30.878906 24.429688 30.878906 23.585938 C 30.878906 22.738281 31.558594 22.054688 32.398438 22.054688 C 33.242188 22.054688 33.921875 22.738281 33.921875 23.585938 Z M 33.921875 23.585938 "/>
<path style=" stroke:none;fill-rule:nonzero;fill:rgb(0%,0%,0%);fill-opacity:1;" d="M 43.507812 23.585938 C 43.507812 24.429688 42.824219 25.113281 41.984375 25.113281 C 41.144531 25.113281 40.464844 24.429688 40.464844 23.585938 C 40.464844 22.738281 41.144531 22.054688 41.984375 22.054688 C 42.824219 22.054688 43.507812 22.738281 43.507812 23.585938 Z M 43.507812 23.585938 "/>
</g>
</svg>
