<?xml version="1.0" encoding="utf-8"?>
<!-- Generator: Adobe Illustrator 16.0.0, SVG Export Plug-In . SVG Version: 6.00 Build 0)  -->
<!DOCTYPE svg PUBLIC "-//W3C//DTD SVG 1.1//EN" "http://www.w3.org/Graphics/SVG/1.1/DTD/svg11.dtd">
<svg version="1.1" xmlns="http://www.w3.org/2000/svg" xmlns:xlink="http://www.w3.org/1999/xlink" x="0px" y="0px"
	 width="47.779px" height="31.895px" viewBox="0 0 47.779 31.895" enable-background="new 0 0 47.779 31.895" xml:space="preserve">
<g id="Layer_1">
</g>
<g id="Layer_2">
	<g>
		<path d="M45.099,11.667H34.083V3.302c0-1.434-1.166-2.6-2.6-2.6H3.977c-1.434,0-2.6,1.167-2.6,2.6v18.667
			c0,1.434,1.166,2.6,2.6,2.6h7.734v4.566c0,0.243,0.146,0.461,0.37,0.554c0.074,0.031,0.152,0.046,0.229,0.046
			c0.156,0,0.31-0.061,0.424-0.176l4.99-4.991h3.981v2.33c0,1.196,0.973,2.169,2.168,2.169h9.846l3.049,2.679
			c0.112,0.098,0.254,0.149,0.396,0.149c0.084,0,0.168-0.018,0.247-0.054c0.215-0.097,0.353-0.311,0.353-0.546v-2.228h7.334
			c1.196,0,2.169-0.973,2.169-2.169V13.836C47.268,12.64,46.295,11.667,45.099,11.667z M46.068,26.898
			c0,0.534-0.436,0.969-0.97,0.969h-7.934c-0.331,0-0.6,0.269-0.6,0.6v1.502l-2.223-1.953c-0.11-0.096-0.251-0.149-0.396-0.149
			H23.874c-0.534,0-0.969-0.435-0.969-0.969v-2.33h8.578c1.434,0,2.6-1.167,2.6-2.6v-9.101h11.016c0.534,0,0.97,0.435,0.97,0.969
			V26.898z M12.91,27.686v-3.718c0-0.332-0.269-0.6-0.6-0.6H3.977c-0.771,0-1.4-0.628-1.4-1.4V3.302c0-0.772,0.629-1.4,1.4-1.4
			h27.507c0.771,0,1.4,0.628,1.4,1.4v8.365v0.6v0.6v9.101c0,0.772-0.629,1.4-1.4,1.4h-8.578h-0.6h-0.6h-4.229
			c-0.159,0-0.312,0.063-0.424,0.176L12.91,27.686z"/>
		<path d="M25.85,12.619c0-4.294-3.493-7.788-7.787-7.788s-7.787,3.494-7.787,7.788s3.493,7.788,7.787,7.788
			S25.85,16.913,25.85,12.619z M11.475,12.619c0-3.632,2.955-6.587,6.588-6.587s6.588,2.955,6.588,6.587s-2.955,6.587-6.588,6.587
			S11.475,16.251,11.475,12.619z"/>
		<path d="M20.304,14.272c-0.226-0.244-0.604-0.257-0.849-0.032c-0.549,0.508-1.1,0.757-1.64,0.727
			c-0.814-0.039-1.393-0.677-1.398-0.684c-0.218-0.248-0.596-0.272-0.844-0.057c-0.25,0.218-0.276,0.597-0.06,0.847
			c0.036,0.042,0.901,1.02,2.227,1.091c0.053,0.003,0.104,0.004,0.157,0.004c0.824,0,1.622-0.353,2.374-1.049
			C20.515,14.895,20.528,14.515,20.304,14.272z"/>
		<circle cx="15.552" cy="11.264" r="0.731"/>
		<circle cx="20.153" cy="11.264" r="0.73"/>
	</g>
</g>
</svg>
