<?xml version="1.0" encoding="UTF-8"?>
<svg width="86px" height="77px" viewBox="0 0 86 77" version="1.1" xmlns="http://www.w3.org/2000/svg" xmlns:xlink="http://www.w3.org/1999/xlink">
    <title>happycustomers</title>
    <g id="Wonder-Theme" stroke="none" stroke-width="1" fill="none" fill-rule="evenodd">
        <g id="Company" transform="translate(-847.000000, -2052.000000)" fill="#231F20" fill-rule="nonzero">
            <g id="happycustomers" transform="translate(847.250836, 2052.000000)">
                <path d="M50.7491639,25.5000004 C50.7491639,15.8498344 42.8918351,7.99806488 33.1723873,8.00000036 C9.92787057,9.12665995 9.93562132,41.9081848 33.230518,43.0000004 C42.8898975,43.0000004 50.7491639,35.1501653 50.7491639,25.5000004 L50.7491639,25.5000004 Z M33.2886487,40.084623 C23.2804852,39.6877756 18.7191654,32.2464043 18.7191654,25.4999998 C18.8160498,7.02627289 46.6683909,5.32466899 47.8290666,25.4999998 C47.8290666,33.5414817 41.2796779,40.084623 33.2886487,40.084623 Z" id="Shape"></path>
                <path d="M28.2472182,25 C32.9173487,24.9686645 32.9156094,18.0295946 28.2472182,18 C23.6066564,18.0226312 23.5596942,24.9651828 28.2472182,25 Z M28.2472182,20.6234767 C29.4473635,20.557324 29.4473635,22.442676 28.2472182,22.3765233 C27.0140254,22.4409351 27.0696843,20.5468789 28.2472182,20.6234767 L28.2472182,20.6234767 Z" id="Shape"></path>
                <path d="M40.2472182,18 C35.6066564,18.024372 35.5596942,24.9651828 40.2472182,25 C44.9173487,24.9704054 44.9156094,18.0295946 40.2472182,18 Z M40.2472182,22.3765233 C39.0140254,22.4409351 39.0714237,20.5468789 40.2472182,20.6234767 C41.4473635,20.557324 41.4456241,22.4444168 40.2472182,22.3765233 L40.2472182,22.3765233 Z" id="Shape"></path>
                <path d="M41.1185906,28.485851 C37.7090606,32.3109893 31.7870388,32.3109893 28.3794716,28.485851 C27.1448174,27.1550619 24.8717974,28.8379116 26.1044888,30.1792624 C30.6230484,35.2735792 38.8769768,35.2735792 43.3955364,30.1792624 C44.6223391,28.8379116 42.3610964,27.1550619 41.1205535,28.485851 L41.1185906,28.485851 Z" id="Path"></path>
                <path d="M77.4158763,27.7704729 L67.1570544,27.7704729 L67.1570544,7.30832552 C67.1570544,3.27875501 63.8697186,0 59.8296023,0 L7.07661594,0 C3.03649968,0 -0.25083612,3.27875501 -0.25083612,7.30832552 L-0.25083612,42.387124 C-0.25083612,46.4166945 3.03649968,49.6954495 7.07661594,49.6954495 L19.9439096,49.6954495 L17.3646154,62.5621378 C17.0436625,63.9299025 18.8701763,64.9096488 19.8369253,63.8833403 L34.0619471,49.6954495 L40.7825064,49.6954495 L40.7825064,55.5409459 C40.7825064,59.5705164 44.0698422,62.8492714 48.1099584,62.8492714 L63.5721077,62.8492714 L74.8599241,75.5122501 C75.8052763,76.6413834 77.7485002,75.6422362 77.3866988,74.2240292 L74.8521434,62.8473313 L77.4217118,62.8473313 C81.4618281,62.8473313 84.7491639,59.5685763 84.7491639,55.5390058 L84.7491639,35.0768584 C84.7491639,31.0472879 81.4618281,27.7685328 77.4217118,27.7685328 L77.4158763,27.7704729 Z M33.4531091,46.7717313 C33.0640753,46.7717313 32.692548,46.9249985 32.416334,47.2004915 L21.1829824,58.4025812 L23.1651097,48.521694 C23.3635169,47.6467126 22.6243527,46.7523304 21.7276297,46.7736714 L7.07661594,46.7736714 C4.65293522,46.7736714 2.68053374,44.8064184 2.68053374,42.3890641 L2.68053374,7.30832552 C2.68053374,4.89097124 4.65293522,2.92371823 7.07661594,2.92371823 L59.8315475,2.92371823 C62.2552282,2.92371823 64.2276297,4.89097124 64.2276297,7.30832552 L64.2276297,42.387124 C64.2276297,44.8044783 62.2552282,46.7717313 59.8315475,46.7717313 L33.4531091,46.7717313 Z M81.8119585,55.5409459 C81.8119585,57.9583002 79.839557,59.9255532 77.4158763,59.9255532 L73.0197941,59.9255532 C72.109455,59.9022721 71.3702907,60.8238156 71.5881496,61.7046173 L73.2960081,69.3621593 L65.3227599,60.4163964 C65.0446007,60.1040416 64.6458411,59.9255532 64.2276297,59.9255532 L48.1080133,59.9255532 C45.6843325,59.9255532 43.7119311,57.9583002 43.7119311,55.5409459 L43.7119311,49.6954495 L59.8315475,49.6954495 C63.8716638,49.6954495 67.1589996,46.4166945 67.1589996,42.387124 L67.1589996,30.6941912 L77.4178215,30.6941912 C79.8415022,30.6941912 81.8139037,32.6614442 81.8139037,35.0787985 L81.8139037,55.5409459 L81.8119585,55.5409459 Z" id="Shape"></path>
            </g>
        </g>
    </g>
</svg>