<svg version="1.1" xmlns="http://www.w3.org/2000/svg" xmlns:xlink="http://www.w3.org/1999/xlink" x="0px" y="0px" width="50px" height="67px" viewBox="0 0 25.75 34.25" enable-background="new 0 0 25.75 34.25" xml:space="preserve">
<g id="Layer_1">
</g>
<g id="Layer_2">
	<path d="M21.23,5.911l1.815-3.458c0.154-0.293,0.041-0.656-0.252-0.81c-0.298-0.155-0.656-0.041-0.811,0.252l-1.813,3.453
		c-1.047-0.465-2.177-0.72-3.322-0.72c-2.579,0-5.04,1.23-6.539,3.24C10.152,8.034,10.027,8.2,9.927,8.375L1.155,23.681
		c-0.745,1.301-0.294,2.967,1.007,3.712l9.541,5.467c0.41,0.236,0.877,0.361,1.349,0.361c0.001,0,0,0,0.001,0
		c0.972,0,1.877-0.523,2.361-1.367l8.771-15.306c0.101-0.176,0.182-0.368,0.223-0.523C25.969,12.319,24.598,8.042,21.23,5.911z
		 M19.016,11.299c0.111,0.409,0.056,0.836-0.155,1.204c-0.418,0.73-1.429,1.009-2.164,0.588c-0.367-0.21-0.631-0.552-0.742-0.961
		c-0.11-0.409-0.056-0.836,0.155-1.204c0.282-0.492,0.811-0.797,1.378-0.797c0.056,0,0.108,0.016,0.163,0.021l-0.434,0.827
		c-0.154,0.293-0.041,0.656,0.252,0.81c0.09,0.047,0.185,0.069,0.278,0.069c0.217,0,0.425-0.117,0.532-0.321l0.432-0.822
		C18.851,10.882,18.956,11.08,19.016,11.299z M23.28,15.623c-0.038,0.127-0.082,0.235-0.136,0.328l-8.771,15.306
		c-0.4,0.699-1.363,0.968-2.073,0.563l-9.541-5.468c-0.727-0.417-0.979-1.347-0.563-2.074l8.771-15.305
		c0.055-0.093,0.123-0.183,0.26-0.334c1.317-1.76,3.419-2.811,5.622-2.811c0.951,0,1.892,0.204,2.766,0.581l-1.379,2.627
		c-0.243-0.068-0.494-0.107-0.748-0.107c-0.996,0-1.924,0.537-2.419,1.4c-0.37,0.645-0.467,1.396-0.272,2.115
		c0.195,0.718,0.658,1.317,1.304,1.688c0.422,0.241,0.899,0.369,1.383,0.369c0.997,0,1.924-0.537,2.419-1.401
		c0.37-0.645,0.468-1.396,0.272-2.114c-0.148-0.549-0.455-1.026-0.879-1.387l1.377-2.622C23.486,8.813,24.621,12.428,23.28,15.623z"
		/>
</g>
</svg>
