<?xml version="1.0" encoding="utf-8"?>
<!-- Generator: Adobe Illustrator 16.0.0, SVG Export Plug-In . SVG Version: 6.00 Build 0)  -->
<!DOCTYPE svg PUBLIC "-//W3C//DTD SVG 1.1//EN" "http://www.w3.org/Graphics/SVG/1.1/DTD/svg11.dtd">
<svg version="1.1" xmlns="http://www.w3.org/2000/svg" xmlns:xlink="http://www.w3.org/1999/xlink" x="0px" y="0px" width="34px"
	 height="33.366px" viewBox="0 0 34 33.366" enable-background="new 0 0 34 33.366" xml:space="preserve">
<g id="Layer_1">
</g>
<g id="Layer_2">
	<g>
		<path d="M33.28,1.218l-0.025-0.574H0.67L0.64,1.213c-0.014,0.275-1.233,27.581,16.195,31.29l0.14,0.03l0.139-0.037
			C34.252,27.962,33.292,1.485,33.28,1.218z M16.945,31.299C2.01,27.982,1.752,5.709,1.822,1.845h30.271
			C32.126,5.662,31.65,27.274,16.945,31.299z"/>
		<path d="M22.184,10.183l-6.156,7.213l-4.519-4.154c-0.243-0.224-0.623-0.208-0.848,0.036c-0.225,0.244-0.209,0.624,0.035,0.848
			l4.977,4.575c0.111,0.102,0.256,0.158,0.406,0.158c0.012,0,0.024,0,0.036-0.001c0.163-0.01,0.314-0.085,0.42-0.209l6.561-7.687
			c0.216-0.252,0.186-0.631-0.066-0.846C22.776,9.902,22.397,9.931,22.184,10.183z"/>
	</g>
</g>
</svg>
