<?xml version="1.0" encoding="UTF-8"?>
<svg xmlns="http://www.w3.org/2000/svg" xmlns:xlink="http://www.w3.org/1999/xlink" width="67px" height="65px" viewBox="0 0 66 65" version="1.1">
<g id="surface1">
<path style=" stroke:none;fill-rule:nonzero;fill:rgb(0%,0%,0%);fill-opacity:1;" d="M 64.601562 2.398438 L 64.554688 1.269531 L 1.300781 1.269531 L 1.242188 2.390625 C 1.214844 2.929688 -1.152344 56.714844 32.679688 64.019531 L 32.953125 64.082031 L 33.222656 64.007812 C 66.488281 55.078125 64.625 2.925781 64.601562 2.398438 Z M 32.894531 61.648438 C 3.902344 55.117188 3.402344 11.246094 3.535156 3.632812 L 62.296875 3.632812 C 62.363281 11.152344 61.4375 53.722656 32.894531 61.648438 Z M 32.894531 61.648438 "/>
<path style=" stroke:none;fill-rule:nonzero;fill:rgb(0%,0%,0%);fill-opacity:1;" d="M 43.0625 20.058594 L 31.113281 34.265625 L 22.339844 26.082031 C 21.867188 25.640625 21.128906 25.671875 20.695312 26.152344 C 20.257812 26.632812 20.289062 27.382812 20.761719 27.824219 L 30.425781 36.835938 C 30.640625 37.035156 30.921875 37.148438 31.210938 37.148438 L 31.28125 37.144531 C 31.597656 37.125 31.890625 36.976562 32.097656 36.734375 L 44.832031 21.59375 C 45.121094 21.273438 45.210938 20.820312 45.074219 20.414062 C 44.9375 20.003906 44.589844 19.707031 44.171875 19.632812 C 43.753906 19.558594 43.328125 19.722656 43.0625 20.058594 Z M 43.0625 20.058594 "/>
</g>
</svg>
