<svg xmlns="http://www.w3.org/2000/svg" width="32.05" height="33.207" xml:space="preserve"><path d="m30.529 9.375-24.486-3.1L5.37 1.33a.6.6 0 0 0-.595-.519H.6a.6.6 0 0 0 0 1.2h3.652l3.182 23.374c-1.706.217-3.035 1.662-3.035 3.427 0 1.914 1.557 3.47 3.47 3.47s3.47-1.557 3.47-3.47c0-.872-.334-1.66-.867-2.271h12.344a3.439 3.439 0 0 0-.867 2.271 3.474 3.474 0 0 0 3.471 3.47 3.474 3.474 0 0 0 3.469-3.47 3.464 3.464 0 0 0-2.978-3.421.589.589 0 0 0-.237-.05H8.639l-.661-4.854H29.41a.601.601 0 0 0 .597-.537l1.045-9.917a.601.601 0 0 0-.523-.658zM7.868 31.081c-1.252 0-2.271-1.018-2.271-2.27s1.019-2.271 2.271-2.271 2.271 1.019 2.271 2.271-1.019 2.27-2.271 2.27zm19.82-2.27a2.273 2.273 0 0 1-2.27 2.27c-1.252 0-2.271-1.018-2.271-2.27s1.02-2.271 2.271-2.271a2.274 2.274 0 0 1 2.27 2.271zm1.181-9.524H7.814L6.211 7.506l23.585 2.985-.927 8.796z"/></svg>