<?xml version="1.0" encoding="utf-8"?>
<!-- Generator: Adobe Illustrator 16.0.0, SVG Export Plug-In . SVG Version: 6.00 Build 0)  -->
<!DOCTYPE svg PUBLIC "-//W3C//DTD SVG 1.1//EN" "http://www.w3.org/Graphics/SVG/1.1/DTD/svg11.dtd">
<svg version="1.1" xmlns="http://www.w3.org/2000/svg" xmlns:xlink="http://www.w3.org/1999/xlink" x="0px" y="0px" width="32.05px"
	 height="33.207px" viewBox="0 0 32.05 33.207" enable-background="new 0 0 32.05 33.207" xml:space="preserve">
<g id="Layer_1">
</g>
<g id="Layer_2">
	<path d="M30.529,9.375L6.043,6.275L5.37,1.33C5.329,1.032,5.075,0.811,4.775,0.811H0.6c-0.331,0-0.6,0.269-0.6,0.6
		s0.269,0.6,0.6,0.6h3.652l3.182,23.374c-1.706,0.217-3.035,1.662-3.035,3.427c0,1.914,1.557,3.47,3.47,3.47s3.47-1.557,3.47-3.47
		c0-0.872-0.334-1.66-0.867-2.271h12.344c-0.533,0.61-0.867,1.398-0.867,2.271c0,1.914,1.557,3.47,3.471,3.47
		c1.913,0,3.469-1.557,3.469-3.47c0-1.746-1.299-3.18-2.978-3.421c-0.073-0.032-0.153-0.05-0.237-0.05H8.639l-0.661-4.854h21.432
		c0.307,0,0.564-0.232,0.597-0.537l1.045-9.917C31.085,9.708,30.854,9.416,30.529,9.375z M7.868,31.081
		c-1.252,0-2.271-1.018-2.271-2.27s1.019-2.271,2.271-2.271s2.271,1.019,2.271,2.271S9.12,31.081,7.868,31.081z M27.688,28.811
		c0,1.252-1.019,2.27-2.27,2.27c-1.252,0-2.271-1.018-2.271-2.27s1.02-2.271,2.271-2.271C26.669,26.541,27.688,27.559,27.688,28.811
		z M28.869,19.287H7.814L6.211,7.506l23.585,2.985L28.869,19.287z"/>
</g>
</svg>
