<?xml version="1.0" encoding="utf-8"?>
<!-- Generator: Adobe Illustrator 16.0.0, SVG Export Plug-In . SVG Version: 6.00 Build 0)  -->
<!DOCTYPE svg PUBLIC "-//W3C//DTD SVG 1.1//EN" "http://www.w3.org/Graphics/SVG/1.1/DTD/svg11.dtd">
<svg version="1.1" xmlns="http://www.w3.org/2000/svg" xmlns:xlink="http://www.w3.org/1999/xlink" x="0px" y="0px"
	 width="29.922px" height="32.625px" viewBox="0 0 29.922 32.625" enable-background="new 0 0 29.922 32.625" xml:space="preserve">
<g id="Layer_1">
</g>
<g id="Layer_2">
	<g>
		<path d="M19.492,19.924c-0.877,0.076-1.536,0.848-2.233,1.666c-0.725,0.849-1.462,1.714-2.259,1.538
			c-1.097-0.246-2.767-2.118-4.157-4.66c-1.424-2.604-2.141-5.186-1.742-6.279c0.258-0.706,1.206-0.877,2.518-1.042
			c1.068-0.134,2.077-0.261,2.62-0.952c2.178-2.767-3.206-8.534-3.827-9.182c-0.177-0.184-0.447-0.237-0.68-0.132
			c-0.323,0.146-7.917,3.637-7.954,9.741C1.741,16.292,7.546,27.04,12.303,30.114c1.25,0.808,2.73,1.217,4.399,1.217
			c0,0,0,0,0.001,0c4.087,0,7.945-2.429,8.107-2.533c0.215-0.137,0.319-0.393,0.263-0.641
			C24.874,27.297,23.016,19.633,19.492,19.924z M16.702,30.132c-1.434,0-2.695-0.345-3.748-1.025
			C8.539,26.252,2.944,15.892,2.977,10.63c0.028-4.612,5.377-7.696,6.867-8.466c2.028,2.212,4.557,5.885,3.451,7.291
			c-0.238,0.304-1.082,0.41-1.826,0.503c-1.322,0.166-2.968,0.373-3.495,1.822c-0.636,1.746,0.521,4.898,1.816,7.266
			c0.606,1.109,2.755,4.764,4.948,5.255c0.161,0.036,0.324,0.054,0.485,0.054c1.255,0,2.154-1.054,2.948-1.984
			c0.486-0.57,1.037-1.216,1.522-1.254c1.744,0,3.387,4.058,4.106,6.888C22.777,28.583,19.759,30.132,16.702,30.132z"/>
		<path d="M16.957,15.655c-0.14,0.181-0.165,0.426-0.064,0.631c0.102,0.206,0.311,0.336,0.539,0.336h3.837
			c0.331,0,0.6-0.269,0.6-0.6s-0.269-0.6-0.6-0.6h-2.62c1.112-1.46,2.802-3.729,2.988-4.277c0.204-0.601,0.144-1.627-0.372-2.348
			c-0.286-0.399-0.828-0.875-1.789-0.875c-0.789,0-1.419,0.242-1.874,0.719c-0.708,0.743-0.681,1.751-0.676,1.863
			c0.017,0.33,0.277,0.591,0.628,0.57c0.331-0.016,0.587-0.297,0.571-0.628c-0.001-0.006-0.013-0.603,0.346-0.978
			c0.219-0.23,0.557-0.346,1.005-0.346c0.367,0,0.633,0.122,0.813,0.374c0.289,0.405,0.291,1.028,0.213,1.258
			C20.343,11.16,18.574,13.564,16.957,15.655z"/>
		<path d="M27.429,13.588h-0.438V8.522c0-0.269-0.178-0.504-0.437-0.577c-0.253-0.074-0.532,0.034-0.674,0.263l-3.487,5.667
			c-0.114,0.185-0.119,0.417-0.013,0.607c0.105,0.19,0.306,0.308,0.523,0.308h2.888v1.234c0,0.332,0.269,0.6,0.6,0.6
			s0.6-0.269,0.6-0.6v-1.234h0.438c0.331,0,0.6-0.269,0.6-0.6S27.76,13.588,27.429,13.588z M25.792,13.588h-1.813l1.813-2.947
			V13.588z"/>
	</g>
</g>
</svg>
