<svg xmlns="http://www.w3.org/2000/svg" width="29.922" height="32.625" xml:space="preserve"><path d="M19.492 19.924c-.877.076-1.536.848-2.233 1.666-.725.849-1.462 1.714-2.259 1.538-1.097-.246-2.767-2.118-4.157-4.66-1.424-2.604-2.141-5.186-1.742-6.279.258-.706 1.206-.877 2.518-1.042 1.068-.134 2.077-.261 2.62-.952 2.178-2.767-3.206-8.534-3.827-9.182a.599.599 0 0 0-.68-.132c-.323.146-7.917 3.637-7.954 9.741-.037 5.67 5.768 16.418 10.525 19.492 1.25.808 2.73 1.217 4.399 1.217h.001c4.087 0 7.945-2.429 8.107-2.533a.601.601 0 0 0 .263-.641c-.199-.86-2.057-8.524-5.581-8.233zm-2.79 10.208c-1.434 0-2.695-.345-3.748-1.025-4.415-2.855-10.01-13.215-9.977-18.477.028-4.612 5.377-7.696 6.867-8.466 2.028 2.212 4.557 5.885 3.451 7.291-.238.304-1.082.41-1.826.503-1.322.166-2.968.373-3.495 1.822-.636 1.746.521 4.898 1.816 7.266.606 1.109 2.755 4.764 4.948 5.255.161.036.324.054.485.054 1.255 0 2.154-1.054 2.948-1.984.486-.57 1.037-1.216 1.522-1.254 1.744 0 3.387 4.058 4.106 6.888-1.022.578-4.04 2.127-7.097 2.127z"/><path d="M16.957 15.655a.599.599 0 0 0 .475.967h3.837a.6.6 0 0 0 0-1.2h-2.62c1.112-1.46 2.802-3.729 2.988-4.277.204-.601.144-1.627-.372-2.348-.286-.399-.828-.875-1.789-.875-.789 0-1.419.242-1.874.719-.708.743-.681 1.751-.676 1.863.017.33.277.591.628.57a.6.6 0 0 0 .571-.628c-.001-.006-.013-.603.346-.978.219-.23.557-.346 1.005-.346.367 0 .633.122.813.374.289.405.291 1.028.213 1.258-.159.406-1.928 2.81-3.545 4.901zM27.429 13.588h-.438V8.522a.599.599 0 0 0-1.111-.314l-3.487 5.667a.6.6 0 0 0 .51.915h2.888v1.234a.6.6 0 1 0 1.2 0V14.79h.438a.6.6 0 0 0 0-1.202zm-1.637 0h-1.813l1.813-2.947v2.947z"/></svg>