<?xml version="1.0" encoding="utf-8"?>
<!-- Generator: Adobe Illustrator 16.0.0, SVG Export Plug-In . SVG Version: 6.00 Build 0)  -->
<!DOCTYPE svg PUBLIC "-//W3C//DTD SVG 1.1//EN" "http://www.w3.org/Graphics/SVG/1.1/DTD/svg11.dtd">
<svg version="1.1" xmlns="http://www.w3.org/2000/svg" xmlns:xlink="http://www.w3.org/1999/xlink" x="0px" y="0px" width="46.75px"
	 height="34.103px" viewBox="0 0 46.75 34.103" enable-background="new 0 0 46.75 34.103" xml:space="preserve">
<g id="Layer_1">
</g>
<g id="Layer_2">
	<path d="M35.348,6.471h-4.161V5.7c0-1.98-1.61-3.591-3.59-3.591H7.969c-1.979,0-3.59,1.611-3.59,3.591v20.188
		c0,1.98,1.61,3.591,3.59,3.591h1.327c0.417,2.104,2.273,3.695,4.498,3.695s4.081-1.592,4.498-3.695h3.945h8.949h0.886
		c0.417,2.104,2.273,3.695,4.497,3.695c2.261,0,4.133-1.647,4.508-3.802c1.579-0.377,2.76-1.792,2.76-3.484V14.744
		C43.837,10.997,40.051,6.471,35.348,6.471z M29.987,28.279h-7.75h-2.659h-1.228C18.188,25.896,16.219,24,13.794,24
		s-4.395,1.896-4.557,4.279H7.969c-1.318,0-2.391-1.072-2.391-2.391V5.7c0-1.318,1.072-2.391,2.391-2.391h19.628
		c1.318,0,2.391,1.072,2.391,2.391v0.771v1.2V28.279z M13.794,31.974c-1.558,0-2.859-1.062-3.254-2.495
		c-0.054-0.194-0.087-0.394-0.105-0.6c-0.009-0.098-0.029-0.192-0.029-0.292c0-0.105,0.021-0.205,0.031-0.308
		c0.158-1.722,1.595-3.079,3.357-3.079s3.199,1.357,3.357,3.079c0.01,0.103,0.031,0.203,0.031,0.308c0,0.1-0.021,0.194-0.029,0.292
		c-0.019,0.206-0.052,0.406-0.105,0.6C16.653,30.912,15.352,31.974,13.794,31.974z M36.569,31.974c-1.558,0-2.858-1.062-3.253-2.495
		c-0.079-0.286-0.135-0.582-0.135-0.892c0-0.105,0.021-0.205,0.031-0.308c0.158-1.722,1.594-3.079,3.356-3.079
		s3.198,1.357,3.356,3.079c0.01,0.103,0.031,0.203,0.031,0.308c0,0.311-0.056,0.606-0.135,0.892
		C39.428,30.912,38.127,31.974,36.569,31.974z M42.638,25.888c0,1.014-0.637,1.876-1.529,2.224C40.866,25.808,38.936,24,36.569,24
		c-2.424,0-4.394,1.896-4.556,4.279h-0.827V7.671h4.161c3.926,0,7.29,3.889,7.29,7.072V25.888z"/>
</g>
</svg>
