<svg xmlns="http://www.w3.org/2000/svg" width="46.75" height="34.103" xml:space="preserve"><path d="M35.348 6.471h-4.161V5.7c0-1.98-1.61-3.591-3.59-3.591H7.969A3.595 3.595 0 0 0 4.379 5.7v20.188c0 1.98 1.61 3.591 3.59 3.591h1.327c.417 2.104 2.273 3.695 4.498 3.695s4.081-1.592 4.498-3.695h13.78a4.592 4.592 0 0 0 4.497 3.695c2.261 0 4.133-1.647 4.508-3.802a3.59 3.59 0 0 0 2.76-3.484V14.744c0-3.747-3.786-8.273-8.489-8.273zm-5.361 21.808H18.35C18.188 25.896 16.219 24 13.794 24s-4.395 1.896-4.557 4.279H7.969a2.394 2.394 0 0 1-2.391-2.391V5.7a2.394 2.394 0 0 1 2.391-2.391h19.628A2.394 2.394 0 0 1 29.988 5.7v22.579zm-16.193 3.695c-1.558 0-2.859-1.062-3.254-2.495a3.302 3.302 0 0 1-.105-.6c-.009-.098-.029-.192-.029-.292 0-.105.021-.205.031-.308.158-1.722 1.595-3.079 3.357-3.079s3.199 1.357 3.357 3.079c.01.103.031.203.031.308 0 .1-.021.194-.029.292a3.484 3.484 0 0 1-.105.6c-.395 1.433-1.696 2.495-3.254 2.495zm22.775 0c-1.558 0-2.858-1.062-3.253-2.495a3.336 3.336 0 0 1-.135-.892c0-.105.021-.205.031-.308.158-1.722 1.594-3.079 3.356-3.079s3.198 1.357 3.356 3.079c.01.103.031.203.031.308 0 .311-.056.606-.135.892a3.377 3.377 0 0 1-3.251 2.495zm6.069-6.086a2.391 2.391 0 0 1-1.529 2.224C40.866 25.808 38.936 24 36.569 24c-2.424 0-4.394 1.896-4.556 4.279h-.827V7.671h4.161c3.926 0 7.29 3.889 7.29 7.072v11.145z"/></svg>